<svg width="839" height="922" viewBox="0 0 839 922" fill="none" xmlns="http://www.w3.org/2000/svg">
<rect width="839" height="922" fill="#E5E5E5"/>
<g clip-path="url(#clip0)" filter="url(#filter0_d)">
<rect width="1440" height="1024" transform="translate(0 -25)" fill="url(#paint0_linear)"/>
<g filter="url(#filter1_f)">
<path d="M53 224.678H720L600.582 618.776L230.104 682.678L53 224.678Z" fill="url(#paint1_linear)"/>
</g>
<g filter="url(#filter2_f)">
<ellipse cx="387.096" cy="578.72" rx="223.901" ry="223.958" fill="url(#paint2_linear)"/>
</g>
<g opacity="0.4" filter="url(#filter3_f)">
<ellipse cx="387.095" cy="578.72" rx="205.242" ry="205.217" fill="url(#paint3_linear)"/>
</g>
<g opacity="0.3" filter="url(#filter4_f)">
<path d="M370.485 113C385.503 305.332 306.546 436.755 289.481 252.154C175.027 313.297 209.574 495.726 122.693 424.625C138.541 572.692 245.359 624.795 186.166 613.687C288.14 711.546 446.081 717.365 511.732 639.606C498.991 639.606 497.741 638.813 497.741 624.795C599.594 605.158 648.918 535.843 647.841 488.568C642.278 501.801 636.192 524.357 608.844 527.994C574.66 532.539 640.574 375.532 596.968 343.106C511.732 433.241 511.732 200.85 370.485 113Z" fill="url(#paint4_linear)"/>
</g>
<g filter="url(#filter5_f)">
<path d="M443.903 236.224C517.037 260.353 518.63 456.372 560.232 353.368C588.491 437.964 533.876 569.307 607.356 502.435C593.952 641.695 503.61 690.7 553.674 680.252C467.428 772.292 333.85 777.764 278.325 704.63C289.1 704.63 290.158 703.884 290.158 690.7C204.015 672.231 162.299 607.038 163.21 562.574C167.915 575.02 173.062 596.235 196.192 599.655C225.103 603.931 169.356 456.261 206.236 425.764C242.159 566.571 221.223 380.999 307.014 331.497C325.219 456.36 461.057 347.417 443.903 236.224Z" fill="url(#paint5_linear)"/>
</g>
<g filter="url(#filter6_f)">
<path d="M503.515 254.78C517.836 371.262 406.303 328.044 423.503 151.185C354.742 203.661 317.658 292.395 283.11 326.884C262.214 347.744 196.476 330.633 226.679 254.78C155.111 330.268 194.449 434.5 132.022 375.612C99.7111 829.619 769.179 861.049 589.134 337.791C558.615 461.786 576.401 298.371 503.515 254.78Z" fill="url(#paint6_radial)"/>
</g>
<g opacity="0.1" filter="url(#filter7_f)">
<path d="M392.614 224.51C326.132 243.233 317.219 424.453 279.4 344.528C202.822 411.044 228.567 505.959 161.77 454.07C25.4013 841.041 793.848 861.767 601.201 400.702C568.545 509.96 587.577 365.968 509.589 327.558C524.912 430.195 374.21 380.348 392.614 224.51Z" fill="url(#paint7_linear)"/>
</g>
<g filter="url(#filter8_f)">
<path d="M388.097 248.745C334.296 265.463 327.083 427.281 296.478 355.913C234.506 415.308 255.341 500.061 201.285 453.727C90.9276 799.269 712.798 817.776 556.897 406.073C530.47 503.634 545.872 375.058 482.759 340.76C495.159 432.409 373.203 387.898 388.097 248.745Z" fill="url(#paint8_linear)"/>
</g>
<g filter="url(#filter9_f)">
<ellipse cx="372.533" cy="416.14" rx="74.1785" ry="42.6364" fill="url(#paint9_linear)"/>
</g>
<path d="M178.635 718.058C178.635 716.671 178.935 715.438 179.535 714.358C180.135 713.265 180.968 712.418 182.035 711.818C183.115 711.205 184.335 710.898 185.695 710.898C187.361 710.898 188.788 711.338 189.975 712.218C191.161 713.098 191.955 714.298 192.355 715.818H188.595C188.315 715.231 187.915 714.785 187.395 714.478C186.888 714.171 186.308 714.018 185.655 714.018C184.601 714.018 183.748 714.385 183.095 715.118C182.441 715.851 182.115 716.831 182.115 718.058C182.115 719.285 182.441 720.265 183.095 720.998C183.748 721.731 184.601 722.098 185.655 722.098C186.308 722.098 186.888 721.945 187.395 721.638C187.915 721.331 188.315 720.885 188.595 720.298H192.355C191.955 721.818 191.161 723.018 189.975 723.898C188.788 724.765 187.361 725.198 185.695 725.198C184.335 725.198 183.115 724.898 182.035 724.298C180.968 723.685 180.135 722.838 179.535 721.758C178.935 720.678 178.635 719.445 178.635 718.058ZM193.769 719.498C193.769 718.351 193.982 717.345 194.409 716.478C194.849 715.611 195.442 714.945 196.189 714.478C196.936 714.011 197.769 713.778 198.689 713.778C199.476 713.778 200.162 713.938 200.749 714.258C201.349 714.578 201.809 714.998 202.129 715.518V713.938H205.549V725.098H202.129V723.518C201.796 724.038 201.329 724.458 200.729 724.778C200.142 725.098 199.456 725.258 198.669 725.258C197.762 725.258 196.936 725.025 196.189 724.558C195.442 724.078 194.849 723.405 194.409 722.538C193.982 721.658 193.769 720.645 193.769 719.498ZM202.129 719.518C202.129 718.665 201.889 717.991 201.409 717.498C200.942 717.005 200.369 716.758 199.689 716.758C199.009 716.758 198.429 717.005 197.949 717.498C197.482 717.978 197.249 718.645 197.249 719.498C197.249 720.351 197.482 721.031 197.949 721.538C198.429 722.031 199.009 722.278 199.689 722.278C200.369 722.278 200.942 722.031 201.409 721.538C201.889 721.045 202.129 720.371 202.129 719.518ZM211.443 715.518C211.777 714.998 212.237 714.578 212.823 714.258C213.41 713.938 214.097 713.778 214.883 713.778C215.803 713.778 216.637 714.011 217.383 714.478C218.13 714.945 218.717 715.611 219.143 716.478C219.583 717.345 219.803 718.351 219.803 719.498C219.803 720.645 219.583 721.658 219.143 722.538C218.717 723.405 218.13 724.078 217.383 724.558C216.637 725.025 215.803 725.258 214.883 725.258C214.11 725.258 213.423 725.098 212.823 724.778C212.237 724.458 211.777 724.045 211.443 723.538V730.418H208.023V713.938H211.443V715.518ZM216.323 719.498C216.323 718.645 216.083 717.978 215.603 717.498C215.137 717.005 214.557 716.758 213.863 716.758C213.183 716.758 212.603 717.005 212.123 717.498C211.657 717.991 211.423 718.665 211.423 719.518C211.423 720.371 211.657 721.045 212.123 721.538C212.603 722.031 213.183 722.278 213.863 722.278C214.543 722.278 215.123 722.031 215.603 721.538C216.083 721.031 216.323 720.351 216.323 719.498ZM227.817 722.198V725.098H226.077C224.837 725.098 223.871 724.798 223.177 724.198C222.484 723.585 222.137 722.591 222.137 721.218V716.778H220.777V713.938H222.137V711.218H225.557V713.938H227.797V716.778H225.557V721.258C225.557 721.591 225.637 721.831 225.797 721.978C225.957 722.125 226.224 722.198 226.597 722.198H227.817ZM229.042 719.498C229.042 718.351 229.256 717.345 229.682 716.478C230.122 715.611 230.716 714.945 231.462 714.478C232.209 714.011 233.042 713.778 233.962 713.778C234.749 713.778 235.436 713.938 236.022 714.258C236.622 714.578 237.082 714.998 237.402 715.518V713.938H240.822V725.098H237.402V723.518C237.069 724.038 236.602 724.458 236.002 724.778C235.416 725.098 234.729 725.258 233.942 725.258C233.036 725.258 232.209 725.025 231.462 724.558C230.716 724.078 230.122 723.405 229.682 722.538C229.256 721.658 229.042 720.645 229.042 719.498ZM237.402 719.518C237.402 718.665 237.162 717.991 236.682 717.498C236.216 717.005 235.642 716.758 234.962 716.758C234.282 716.758 233.702 717.005 233.222 717.498C232.756 717.978 232.522 718.645 232.522 719.498C232.522 720.351 232.756 721.031 233.222 721.538C233.702 722.031 234.282 722.278 234.962 722.278C235.642 722.278 236.216 722.031 236.682 721.538C237.162 721.045 237.402 720.371 237.402 719.518ZM245.017 712.778C244.417 712.778 243.923 712.605 243.537 712.258C243.163 711.898 242.977 711.458 242.977 710.938C242.977 710.405 243.163 709.965 243.537 709.618C243.923 709.258 244.417 709.078 245.017 709.078C245.603 709.078 246.083 709.258 246.457 709.618C246.843 709.965 247.037 710.405 247.037 710.938C247.037 711.458 246.843 711.898 246.457 712.258C246.083 712.605 245.603 712.778 245.017 712.778ZM246.717 713.938V725.098H243.297V713.938H246.717ZM255.995 713.818C257.302 713.818 258.342 714.245 259.115 715.098C259.902 715.938 260.295 717.098 260.295 718.578V725.098H256.895V719.038C256.895 718.291 256.702 717.711 256.315 717.298C255.928 716.885 255.408 716.678 254.755 716.678C254.102 716.678 253.582 716.885 253.195 717.298C252.808 717.711 252.615 718.291 252.615 719.038V725.098H249.195V713.938H252.615V715.418C252.962 714.925 253.428 714.538 254.015 714.258C254.602 713.965 255.262 713.818 255.995 713.818ZM271.99 725.238C270.963 725.238 270.043 725.071 269.23 724.738C268.417 724.405 267.763 723.911 267.27 723.258C266.79 722.605 266.537 721.818 266.51 720.898H270.15C270.203 721.418 270.383 721.818 270.69 722.098C270.997 722.365 271.397 722.498 271.89 722.498C272.397 722.498 272.797 722.385 273.09 722.158C273.383 721.918 273.53 721.591 273.53 721.178C273.53 720.831 273.41 720.545 273.17 720.318C272.943 720.091 272.657 719.905 272.31 719.758C271.977 719.611 271.497 719.445 270.87 719.258C269.963 718.978 269.223 718.698 268.65 718.418C268.077 718.138 267.583 717.725 267.17 717.178C266.757 716.631 266.55 715.918 266.55 715.038C266.55 713.731 267.023 712.711 267.97 711.978C268.917 711.231 270.15 710.858 271.67 710.858C273.217 710.858 274.463 711.231 275.41 711.978C276.357 712.711 276.863 713.738 276.93 715.058H273.23C273.203 714.605 273.037 714.251 272.73 713.998C272.423 713.731 272.03 713.598 271.55 713.598C271.137 713.598 270.803 713.711 270.55 713.938C270.297 714.151 270.17 714.465 270.17 714.878C270.17 715.331 270.383 715.685 270.81 715.938C271.237 716.191 271.903 716.465 272.81 716.758C273.717 717.065 274.45 717.358 275.01 717.638C275.583 717.918 276.077 718.325 276.49 718.858C276.903 719.391 277.11 720.078 277.11 720.918C277.11 721.718 276.903 722.445 276.49 723.098C276.09 723.751 275.503 724.271 274.73 724.658C273.957 725.045 273.043 725.238 271.99 725.238ZM289.735 719.338C289.735 719.658 289.715 719.991 289.675 720.338H281.935C281.988 721.031 282.208 721.565 282.595 721.938C282.995 722.298 283.481 722.478 284.055 722.478C284.908 722.478 285.501 722.118 285.835 721.398H289.475C289.288 722.131 288.948 722.791 288.455 723.378C287.975 723.965 287.368 724.425 286.635 724.758C285.901 725.091 285.081 725.258 284.175 725.258C283.081 725.258 282.108 725.025 281.255 724.558C280.401 724.091 279.735 723.425 279.255 722.558C278.775 721.691 278.535 720.678 278.535 719.518C278.535 718.358 278.768 717.345 279.235 716.478C279.715 715.611 280.381 714.945 281.235 714.478C282.088 714.011 283.068 713.778 284.175 713.778C285.255 713.778 286.215 714.005 287.055 714.458C287.895 714.911 288.548 715.558 289.015 716.398C289.495 717.238 289.735 718.218 289.735 719.338ZM286.235 718.438C286.235 717.851 286.035 717.385 285.635 717.038C285.235 716.691 284.735 716.518 284.135 716.518C283.561 716.518 283.075 716.685 282.675 717.018C282.288 717.351 282.048 717.825 281.955 718.438H286.235ZM305.779 713.818C307.166 713.818 308.266 714.238 309.079 715.078C309.906 715.918 310.319 717.085 310.319 718.578V725.098H306.919V719.038C306.919 718.318 306.726 717.765 306.339 717.378C305.966 716.978 305.446 716.778 304.779 716.778C304.112 716.778 303.586 716.978 303.199 717.378C302.826 717.765 302.639 718.318 302.639 719.038V725.098H299.239V719.038C299.239 718.318 299.046 717.765 298.659 717.378C298.286 716.978 297.766 716.778 297.099 716.778C296.432 716.778 295.906 716.978 295.519 717.378C295.146 717.765 294.959 718.318 294.959 719.038V725.098H291.539V713.938H294.959V715.338C295.306 714.871 295.759 714.505 296.319 714.238C296.879 713.958 297.512 713.818 298.219 713.818C299.059 713.818 299.806 713.998 300.459 714.358C301.126 714.718 301.646 715.231 302.019 715.898C302.406 715.285 302.932 714.785 303.599 714.398C304.266 714.011 304.992 713.818 305.779 713.818Z" fill="white"/>
<path d="M196.23 736.142L192.022 747.294H190.342L186.134 736.142H187.686L191.19 745.758L194.694 736.142H196.23ZM205.827 742.574C205.827 742.851 205.811 743.145 205.779 743.454H198.771C198.824 744.318 199.117 744.995 199.651 745.486C200.195 745.966 200.851 746.206 201.619 746.206C202.248 746.206 202.771 746.062 203.187 745.774C203.613 745.475 203.912 745.081 204.083 744.59H205.651C205.416 745.433 204.947 746.121 204.243 746.654C203.539 747.177 202.664 747.438 201.619 747.438C200.787 747.438 200.04 747.251 199.379 746.878C198.728 746.505 198.216 745.977 197.843 745.294C197.469 744.601 197.283 743.801 197.283 742.894C197.283 741.987 197.464 741.193 197.827 740.51C198.189 739.827 198.696 739.305 199.347 738.942C200.008 738.569 200.765 738.382 201.619 738.382C202.451 738.382 203.187 738.563 203.827 738.926C204.467 739.289 204.957 739.79 205.299 740.43C205.651 741.059 205.827 741.774 205.827 742.574ZM204.323 742.27C204.323 741.715 204.2 741.241 203.955 740.846C203.709 740.441 203.373 740.137 202.947 739.934C202.531 739.721 202.067 739.614 201.555 739.614C200.819 739.614 200.189 739.849 199.667 740.318C199.155 740.787 198.861 741.438 198.787 742.27H204.323ZM209.525 739.726V744.894C209.525 745.321 209.615 745.625 209.797 745.806C209.978 745.977 210.293 746.062 210.741 746.062H211.813V747.294H210.501C209.69 747.294 209.082 747.107 208.677 746.734C208.271 746.361 208.069 745.747 208.069 744.894V739.726H206.933V738.526H208.069V736.318H209.525V738.526H211.813V739.726H209.525ZM221.577 742.574C221.577 742.851 221.561 743.145 221.529 743.454H214.521C214.574 744.318 214.867 744.995 215.401 745.486C215.945 745.966 216.601 746.206 217.369 746.206C217.998 746.206 218.521 746.062 218.937 745.774C219.363 745.475 219.662 745.081 219.833 744.59H221.401C221.166 745.433 220.697 746.121 219.993 746.654C219.289 747.177 218.414 747.438 217.369 747.438C216.537 747.438 215.79 747.251 215.129 746.878C214.478 746.505 213.966 745.977 213.593 745.294C213.219 744.601 213.033 743.801 213.033 742.894C213.033 741.987 213.214 741.193 213.577 740.51C213.939 739.827 214.446 739.305 215.097 738.942C215.758 738.569 216.515 738.382 217.369 738.382C218.201 738.382 218.937 738.563 219.577 738.926C220.217 739.289 220.707 739.79 221.049 740.43C221.401 741.059 221.577 741.774 221.577 742.574ZM220.073 742.27C220.073 741.715 219.95 741.241 219.705 740.846C219.459 740.441 219.123 740.137 218.697 739.934C218.281 739.721 217.817 739.614 217.305 739.614C216.569 739.614 215.939 739.849 215.417 740.318C214.905 740.787 214.611 741.438 214.537 742.27H220.073ZM224.955 739.95C225.211 739.449 225.573 739.059 226.043 738.782C226.523 738.505 227.104 738.366 227.787 738.366V739.87H227.403C225.771 739.87 224.955 740.755 224.955 742.526V747.294H223.499V738.526H224.955V739.95ZM228.923 742.878C228.923 741.982 229.105 741.198 229.467 740.526C229.83 739.843 230.326 739.315 230.955 738.942C231.595 738.569 232.305 738.382 233.083 738.382C233.851 738.382 234.518 738.547 235.083 738.878C235.649 739.209 236.07 739.625 236.347 740.126V738.526H237.819V747.294H236.347V745.662C236.059 746.174 235.627 746.601 235.051 746.942C234.486 747.273 233.825 747.438 233.067 747.438C232.289 747.438 231.585 747.246 230.955 746.862C230.326 746.478 229.83 745.939 229.467 745.246C229.105 744.553 228.923 743.763 228.923 742.878ZM236.347 742.894C236.347 742.233 236.214 741.657 235.947 741.166C235.681 740.675 235.318 740.302 234.859 740.046C234.411 739.779 233.915 739.646 233.371 739.646C232.827 739.646 232.331 739.774 231.883 740.03C231.435 740.286 231.078 740.659 230.811 741.15C230.545 741.641 230.411 742.217 230.411 742.878C230.411 743.55 230.545 744.137 230.811 744.638C231.078 745.129 231.435 745.507 231.883 745.774C232.331 746.03 232.827 746.158 233.371 746.158C233.915 746.158 234.411 746.03 234.859 745.774C235.318 745.507 235.681 745.129 235.947 744.638C236.214 744.137 236.347 743.555 236.347 742.894ZM244.552 738.366C245.619 738.366 246.483 738.691 247.144 739.342C247.805 739.982 248.136 740.91 248.136 742.126V747.294H246.696V742.334C246.696 741.459 246.477 740.793 246.04 740.334C245.603 739.865 245.005 739.63 244.248 739.63C243.48 739.63 242.867 739.87 242.408 740.35C241.96 740.83 241.736 741.529 241.736 742.446V747.294H240.28V738.526H241.736V739.774C242.024 739.326 242.413 738.979 242.904 738.734C243.405 738.489 243.955 738.366 244.552 738.366ZM258.316 747.406C257.58 747.406 256.919 747.278 256.332 747.022C255.756 746.755 255.303 746.393 254.972 745.934C254.641 745.465 254.471 744.926 254.46 744.318H256.012C256.065 744.841 256.279 745.283 256.652 745.646C257.036 745.998 257.591 746.174 258.316 746.174C259.009 746.174 259.553 746.003 259.948 745.662C260.353 745.31 260.556 744.862 260.556 744.318C260.556 743.891 260.439 743.545 260.204 743.278C259.969 743.011 259.676 742.809 259.324 742.67C258.972 742.531 258.497 742.382 257.9 742.222C257.164 742.03 256.572 741.838 256.124 741.646C255.687 741.454 255.308 741.155 254.988 740.75C254.679 740.334 254.524 739.779 254.524 739.086C254.524 738.478 254.679 737.939 254.988 737.47C255.297 737.001 255.729 736.638 256.284 736.382C256.849 736.126 257.495 735.998 258.22 735.998C259.265 735.998 260.119 736.259 260.78 736.782C261.452 737.305 261.831 737.998 261.916 738.862H260.316C260.263 738.435 260.039 738.062 259.644 737.742C259.249 737.411 258.727 737.246 258.076 737.246C257.468 737.246 256.972 737.406 256.588 737.726C256.204 738.035 256.012 738.473 256.012 739.038C256.012 739.443 256.124 739.774 256.348 740.03C256.583 740.286 256.865 740.483 257.196 740.622C257.537 740.75 258.012 740.899 258.62 741.07C259.356 741.273 259.948 741.475 260.396 741.678C260.844 741.87 261.228 742.174 261.548 742.59C261.868 742.995 262.028 743.55 262.028 744.254C262.028 744.798 261.884 745.31 261.596 745.79C261.308 746.27 260.881 746.659 260.316 746.958C259.751 747.257 259.084 747.406 258.316 747.406ZM265.626 740.142C265.914 739.641 266.341 739.225 266.906 738.894C267.482 738.553 268.149 738.382 268.906 738.382C269.685 738.382 270.389 738.569 271.018 738.942C271.658 739.315 272.16 739.843 272.522 740.526C272.885 741.198 273.066 741.982 273.066 742.878C273.066 743.763 272.885 744.553 272.522 745.246C272.16 745.939 271.658 746.478 271.018 746.862C270.389 747.246 269.685 747.438 268.906 747.438C268.16 747.438 267.498 747.273 266.922 746.942C266.357 746.601 265.925 746.179 265.626 745.678V751.454H264.17V738.526H265.626V740.142ZM271.578 742.878C271.578 742.217 271.445 741.641 271.178 741.15C270.912 740.659 270.549 740.286 270.09 740.03C269.642 739.774 269.146 739.646 268.602 739.646C268.069 739.646 267.573 739.779 267.114 740.046C266.666 740.302 266.304 740.681 266.026 741.182C265.76 741.673 265.626 742.243 265.626 742.894C265.626 743.555 265.76 744.137 266.026 744.638C266.304 745.129 266.666 745.507 267.114 745.774C267.573 746.03 268.069 746.158 268.602 746.158C269.146 746.158 269.642 746.03 270.09 745.774C270.549 745.507 270.912 745.129 271.178 744.638C271.445 744.137 271.578 743.55 271.578 742.878ZM278.807 747.438C277.986 747.438 277.239 747.251 276.567 746.878C275.906 746.505 275.383 745.977 274.999 745.294C274.626 744.601 274.439 743.801 274.439 742.894C274.439 741.998 274.631 741.209 275.015 740.526C275.41 739.833 275.943 739.305 276.615 738.942C277.287 738.569 278.039 738.382 278.871 738.382C279.703 738.382 280.455 738.569 281.127 738.942C281.799 739.305 282.327 739.827 282.711 740.51C283.106 741.193 283.303 741.987 283.303 742.894C283.303 743.801 283.1 744.601 282.695 745.294C282.3 745.977 281.762 746.505 281.079 746.878C280.396 747.251 279.639 747.438 278.807 747.438ZM278.807 746.158C279.33 746.158 279.82 746.035 280.279 745.79C280.738 745.545 281.106 745.177 281.383 744.686C281.671 744.195 281.815 743.598 281.815 742.894C281.815 742.19 281.676 741.593 281.399 741.102C281.122 740.611 280.759 740.249 280.311 740.014C279.863 739.769 279.378 739.646 278.855 739.646C278.322 739.646 277.831 739.769 277.383 740.014C276.946 740.249 276.594 740.611 276.327 741.102C276.06 741.593 275.927 742.19 275.927 742.894C275.927 743.609 276.055 744.211 276.311 744.702C276.578 745.193 276.93 745.561 277.367 745.806C277.804 746.041 278.284 746.158 278.807 746.158ZM289.041 747.438C288.22 747.438 287.473 747.251 286.801 746.878C286.14 746.505 285.617 745.977 285.233 745.294C284.86 744.601 284.673 743.801 284.673 742.894C284.673 741.998 284.865 741.209 285.249 740.526C285.644 739.833 286.177 739.305 286.849 738.942C287.521 738.569 288.273 738.382 289.105 738.382C289.937 738.382 290.689 738.569 291.361 738.942C292.033 739.305 292.561 739.827 292.945 740.51C293.34 741.193 293.537 741.987 293.537 742.894C293.537 743.801 293.335 744.601 292.929 745.294C292.535 745.977 291.996 746.505 291.313 746.878C290.631 747.251 289.873 747.438 289.041 747.438ZM289.041 746.158C289.564 746.158 290.055 746.035 290.513 745.79C290.972 745.545 291.34 745.177 291.617 744.686C291.905 744.195 292.049 743.598 292.049 742.894C292.049 742.19 291.911 741.593 291.633 741.102C291.356 740.611 290.993 740.249 290.545 740.014C290.097 739.769 289.612 739.646 289.089 739.646C288.556 739.646 288.065 739.769 287.617 740.014C287.18 740.249 286.828 740.611 286.561 741.102C286.295 741.593 286.161 742.19 286.161 742.894C286.161 743.609 286.289 744.211 286.545 744.702C286.812 745.193 287.164 745.561 287.601 745.806C288.039 746.041 288.519 746.158 289.041 746.158ZM300.348 747.294L296.908 743.422V747.294H295.452V735.454H296.908V742.414L300.284 738.526H302.316L298.188 742.894L302.332 747.294H300.348ZM311.238 738.526L305.958 751.422H304.454L306.182 747.198L302.646 738.526H304.262L307.014 745.63L309.734 738.526H311.238ZM274.04 763.374C273.731 762.723 273.283 762.222 272.696 761.87C272.11 761.507 271.427 761.326 270.648 761.326C269.87 761.326 269.166 761.507 268.536 761.87C267.918 762.222 267.427 762.734 267.064 763.406C266.712 764.067 266.536 764.835 266.536 765.71C266.536 766.585 266.712 767.353 267.064 768.014C267.427 768.675 267.918 769.187 268.536 769.55C269.166 769.902 269.87 770.078 270.648 770.078C271.736 770.078 272.632 769.753 273.336 769.102C274.04 768.451 274.451 767.571 274.568 766.462H270.12V765.278H276.12V766.398C276.035 767.315 275.747 768.158 275.256 768.926C274.766 769.683 274.12 770.286 273.32 770.734C272.52 771.171 271.63 771.39 270.648 771.39C269.614 771.39 268.67 771.15 267.816 770.67C266.963 770.179 266.286 769.502 265.784 768.638C265.294 767.774 265.048 766.798 265.048 765.71C265.048 764.622 265.294 763.646 265.784 762.782C266.286 761.907 266.963 761.23 267.816 760.75C268.67 760.259 269.614 760.014 270.648 760.014C271.832 760.014 272.878 760.307 273.784 760.894C274.702 761.481 275.368 762.307 275.784 763.374H274.04ZM282.397 762.366C283.059 762.366 283.656 762.51 284.189 762.798C284.723 763.075 285.139 763.497 285.437 764.062C285.747 764.627 285.901 765.315 285.901 766.126V771.294H284.461V766.334C284.461 765.459 284.243 764.793 283.805 764.334C283.368 763.865 282.771 763.63 282.013 763.63C281.245 763.63 280.632 763.87 280.173 764.35C279.725 764.83 279.501 765.529 279.501 766.446V771.294H278.045V759.454H279.501V763.774C279.789 763.326 280.184 762.979 280.685 762.734C281.197 762.489 281.768 762.366 282.397 762.366ZM292.104 771.438C291.283 771.438 290.536 771.251 289.864 770.878C289.203 770.505 288.68 769.977 288.296 769.294C287.923 768.601 287.736 767.801 287.736 766.894C287.736 765.998 287.928 765.209 288.312 764.526C288.707 763.833 289.24 763.305 289.912 762.942C290.584 762.569 291.336 762.382 292.168 762.382C293 762.382 293.752 762.569 294.424 762.942C295.096 763.305 295.624 763.827 296.008 764.51C296.403 765.193 296.6 765.987 296.6 766.894C296.6 767.801 296.397 768.601 295.992 769.294C295.597 769.977 295.059 770.505 294.376 770.878C293.693 771.251 292.936 771.438 292.104 771.438ZM292.104 770.158C292.627 770.158 293.117 770.035 293.576 769.79C294.035 769.545 294.403 769.177 294.68 768.686C294.968 768.195 295.112 767.598 295.112 766.894C295.112 766.19 294.973 765.593 294.696 765.102C294.419 764.611 294.056 764.249 293.608 764.014C293.16 763.769 292.675 763.646 292.152 763.646C291.619 763.646 291.128 763.769 290.68 764.014C290.243 764.249 289.891 764.611 289.624 765.102C289.357 765.593 289.224 766.19 289.224 766.894C289.224 767.609 289.352 768.211 289.608 768.702C289.875 769.193 290.227 769.561 290.664 769.806C291.101 770.041 291.581 770.158 292.104 770.158ZM301.618 771.438C300.946 771.438 300.344 771.326 299.81 771.102C299.277 770.867 298.856 770.547 298.546 770.142C298.237 769.726 298.066 769.251 298.034 768.718H299.538C299.581 769.155 299.784 769.513 300.146 769.79C300.52 770.067 301.005 770.206 301.602 770.206C302.157 770.206 302.594 770.083 302.914 769.838C303.234 769.593 303.394 769.283 303.394 768.91C303.394 768.526 303.224 768.243 302.882 768.062C302.541 767.87 302.013 767.683 301.298 767.502C300.648 767.331 300.114 767.161 299.698 766.99C299.293 766.809 298.941 766.547 298.642 766.206C298.354 765.854 298.21 765.395 298.21 764.83C298.21 764.382 298.344 763.971 298.61 763.598C298.877 763.225 299.256 762.931 299.746 762.718C300.237 762.494 300.797 762.382 301.426 762.382C302.397 762.382 303.181 762.627 303.778 763.118C304.376 763.609 304.696 764.281 304.738 765.134H303.282C303.25 764.675 303.064 764.307 302.722 764.03C302.392 763.753 301.944 763.614 301.378 763.614C300.856 763.614 300.44 763.726 300.13 763.95C299.821 764.174 299.666 764.467 299.666 764.83C299.666 765.118 299.757 765.358 299.938 765.55C300.13 765.731 300.365 765.881 300.642 765.998C300.93 766.105 301.325 766.227 301.826 766.366C302.456 766.537 302.968 766.707 303.362 766.878C303.757 767.038 304.093 767.283 304.37 767.614C304.658 767.945 304.808 768.377 304.818 768.91C304.818 769.39 304.685 769.822 304.418 770.206C304.152 770.59 303.773 770.894 303.282 771.118C302.802 771.331 302.248 771.438 301.618 771.438ZM308.65 763.726V768.894C308.65 769.321 308.74 769.625 308.922 769.806C309.103 769.977 309.418 770.062 309.866 770.062H310.938V771.294H309.626C308.815 771.294 308.207 771.107 307.802 770.734C307.396 770.361 307.194 769.747 307.194 768.894V763.726H306.058V762.526H307.194V760.318H308.65V762.526H310.938V763.726H308.65Z" fill="white"/>
<mask id="mask0" style="mask-type:alpha" maskUnits="userSpaceOnUse" x="210" y="380" width="351" height="331">
<path d="M448.432 388.952C408.832 378.358 366.58 378.207 326.98 388.802L319.614 390.772C252.654 408.688 207.192 470.799 210.358 540.042L211.054 555.265C213.311 604.631 244.605 647.969 290.756 665.641V665.641C295.983 667.643 300.407 671.31 303.343 676.076L313.889 693.194C318.121 700.062 324.689 705.171 332.387 707.582L332.988 707.77C334.449 708.228 335.98 708.427 337.51 708.358V708.358C344.803 708.032 350.922 702.75 352.309 695.583L352.532 694.432C353.705 688.371 362.301 688.153 363.779 694.148L364.142 695.618C365.953 702.959 372.097 708.427 379.598 709.375L385.261 710.09C387.106 710.323 388.972 710.323 390.816 710.09L395.875 709.451C403.741 708.458 410.182 702.724 412.081 695.027L412.342 693.97C413.892 687.686 422.856 687.778 424.277 694.092L424.644 695.719C426.249 702.853 432.431 708.029 439.735 708.356V708.356C441.306 708.426 442.877 708.222 444.377 707.752L444.832 707.609C452.566 705.187 459.114 699.957 463.186 692.95L473.071 675.939C475.791 671.258 479.956 667.586 484.941 665.474V665.474C526.886 647.701 555.429 608.034 558.955 562.617L560.27 545.673C565.859 473.671 518.196 407.618 448.432 388.952V388.952Z" fill="#FFF0D3"/>
</mask>
<g mask="url(#mask0)">
<g filter="url(#filter10_di)">
<path d="M448.432 388.952C408.832 378.358 366.58 378.207 326.98 388.802L319.614 390.772C252.654 408.688 207.192 470.799 210.358 540.042L211.054 555.265C213.311 604.631 244.605 647.969 290.756 665.641V665.641C295.983 667.643 300.407 671.31 303.343 676.076L313.889 693.194C318.121 700.062 324.689 705.171 332.387 707.582L332.988 707.77C334.449 708.228 335.98 708.427 337.51 708.358V708.358C344.803 708.032 350.922 702.75 352.309 695.583L352.532 694.432C353.705 688.371 362.301 688.153 363.779 694.148L364.142 695.618C365.953 702.959 372.097 708.427 379.598 709.375L385.261 710.09C387.106 710.323 388.972 710.323 390.816 710.09L395.875 709.451C403.741 708.458 410.182 702.724 412.081 695.027L412.342 693.97C413.892 687.686 422.856 687.778 424.277 694.092L424.644 695.719C426.249 702.853 432.431 708.029 439.735 708.356V708.356C441.306 708.426 442.877 708.222 444.377 707.752L444.832 707.609C452.566 705.187 459.114 699.957 463.186 692.95L473.071 675.939C475.791 671.258 479.956 667.586 484.941 665.474V665.474C526.886 647.701 555.429 608.034 558.955 562.617L560.27 545.673C565.859 473.671 518.196 407.618 448.432 388.952V388.952Z" fill="url(#paint10_radial)"/>
</g>
<g filter="url(#filter11_f)">
<ellipse cx="332.814" cy="394.182" rx="61.8913" ry="24.8322" fill="white"/>
</g>
<g filter="url(#filter12_f)">
<ellipse cx="332.814" cy="394.183" rx="39.5922" ry="15.9301" fill="white"/>
</g>
<g opacity="0.4" filter="url(#filter13_f)">
<path d="M271.248 619.711C269.527 595.959 286.486 574.928 310.063 571.575L364.517 563.832C375.637 562.251 386.924 562.251 398.043 563.832L452.277 571.544C475.953 574.911 492.95 596.076 491.127 619.92V619.92C488.193 658.304 456.191 687.952 417.695 687.952H344.611C306.049 687.952 274.034 658.172 271.248 619.711V619.711Z" fill="url(#paint11_linear)"/>
</g>
<g filter="url(#filter14_f)">
<ellipse rx="42.7763" ry="9.81494" transform="matrix(0.762633 -0.646832 0.653868 0.756609 468.787 685.698)" fill="white"/>
</g>
<g filter="url(#filter15_f)">
<ellipse rx="14.5938" ry="5.19992" transform="matrix(0.762633 -0.646832 0.653868 0.756609 460.383 698.55)" fill="white"/>
</g>
<g filter="url(#filter16_f)">
<ellipse rx="21.4795" ry="11.0653" transform="matrix(0.750175 -0.661239 0.639384 0.768888 408.527 707.532)" fill="white"/>
</g>
<g filter="url(#filter17_f)">
<ellipse rx="30.8716" ry="11.0653" transform="matrix(0.750175 -0.661239 0.639384 0.768888 349.396 710.314)" fill="white"/>
</g>
</g>
<g filter="url(#filter18_dd)">
<ellipse cx="294.957" cy="519.758" rx="47.1011" ry="48.493" fill="url(#paint12_linear)"/>
</g>
<g filter="url(#filter19_dd)">
<ellipse cx="471.933" cy="519.758" rx="47.1011" ry="48.493" fill="url(#paint13_linear)"/>
</g>
<path d="M330.63 668.535L330.63 744.286" stroke="#FF5B79"/>
<ellipse cx="330.63" cy="668.535" rx="3.06572" ry="3.15632" fill="#FF5B79"/>
</g>
<defs>
<filter id="filter0_d" x="-64" y="-91" width="1620" height="1204" filterUnits="userSpaceOnUse" color-interpolation-filters="sRGB">
<feFlood flood-opacity="0" result="BackgroundImageFix"/>
<feColorMatrix in="SourceAlpha" type="matrix" values="0 0 0 0 0 0 0 0 0 0 0 0 0 0 0 0 0 0 127 0" result="hardAlpha"/>
<feOffset dx="26" dy="24"/>
<feGaussianBlur stdDeviation="45"/>
<feColorMatrix type="matrix" values="0 0 0 0 0.121333 0 0 0 0 0.101667 0 0 0 0 0.2 0 0 0 0.13 0"/>
<feBlend mode="normal" in2="BackgroundImageFix" result="effect1_dropShadow"/>
<feBlend mode="normal" in="SourceGraphic" in2="effect1_dropShadow" result="shape"/>
</filter>
<filter id="filter1_f" x="-65.754" y="105.924" width="904.508" height="695.508" filterUnits="userSpaceOnUse" color-interpolation-filters="sRGB">
<feFlood flood-opacity="0" result="BackgroundImageFix"/>
<feBlend mode="normal" in="SourceGraphic" in2="BackgroundImageFix" result="shape"/>
<feGaussianBlur stdDeviation="59.377" result="effect1_foregroundBlur"/>
</filter>
<filter id="filter2_f" x="44.4413" y="236.008" width="685.309" height="685.424" filterUnits="userSpaceOnUse" color-interpolation-filters="sRGB">
<feFlood flood-opacity="0" result="BackgroundImageFix"/>
<feBlend mode="normal" in="SourceGraphic" in2="BackgroundImageFix" result="shape"/>
<feGaussianBlur stdDeviation="59.377" result="effect1_foregroundBlur"/>
</filter>
<filter id="filter3_f" x="63.099" y="254.75" width="647.993" height="647.942" filterUnits="userSpaceOnUse" color-interpolation-filters="sRGB">
<feFlood flood-opacity="0" result="BackgroundImageFix"/>
<feBlend mode="normal" in="SourceGraphic" in2="BackgroundImageFix" result="shape"/>
<feGaussianBlur stdDeviation="59.377" result="effect1_foregroundBlur"/>
</filter>
<filter id="filter4_f" x="9.87659" y="0.183723" width="750.798" height="805.674" filterUnits="userSpaceOnUse" color-interpolation-filters="sRGB">
<feFlood flood-opacity="0" result="BackgroundImageFix"/>
<feBlend mode="normal" in="SourceGraphic" in2="BackgroundImageFix" result="shape"/>
<feGaussianBlur stdDeviation="56.4081" result="effect1_foregroundBlur"/>
</filter>
<filter id="filter5_f" x="115.694" y="188.722" width="539.164" height="613.667" filterUnits="userSpaceOnUse" color-interpolation-filters="sRGB">
<feFlood flood-opacity="0" result="BackgroundImageFix"/>
<feBlend mode="normal" in="SourceGraphic" in2="BackgroundImageFix" result="shape"/>
<feGaussianBlur stdDeviation="23.7508" result="effect1_foregroundBlur"/>
</filter>
<filter id="filter6_f" x="104.475" y="124.773" width="541.872" height="624.819" filterUnits="userSpaceOnUse" color-interpolation-filters="sRGB">
<feFlood flood-opacity="0" result="BackgroundImageFix"/>
<feBlend mode="normal" in="SourceGraphic" in2="BackgroundImageFix" result="shape"/>
<feGaussianBlur stdDeviation="13.206" result="effect1_foregroundBlur"/>
</filter>
<filter id="filter7_f" x="26.6923" y="105.756" width="724.446" height="758.515" filterUnits="userSpaceOnUse" color-interpolation-filters="sRGB">
<feFlood flood-opacity="0" result="BackgroundImageFix"/>
<feBlend mode="normal" in="SourceGraphic" in2="BackgroundImageFix" result="shape"/>
<feGaussianBlur stdDeviation="59.377" result="effect1_foregroundBlur"/>
</filter>
<filter id="filter8_f" x="167.293" y="227.963" width="435.622" height="506.792" filterUnits="userSpaceOnUse" color-interpolation-filters="sRGB">
<feFlood flood-opacity="0" result="BackgroundImageFix"/>
<feBlend mode="normal" in="SourceGraphic" in2="BackgroundImageFix" result="shape"/>
<feGaussianBlur stdDeviation="10.391" result="effect1_foregroundBlur"/>
</filter>
<filter id="filter9_f" x="219.338" y="294.486" width="306.391" height="243.307" filterUnits="userSpaceOnUse" color-interpolation-filters="sRGB">
<feFlood flood-opacity="0" result="BackgroundImageFix"/>
<feBlend mode="normal" in="SourceGraphic" in2="BackgroundImageFix" result="shape"/>
<feGaussianBlur stdDeviation="39.5085" result="effect1_foregroundBlur"/>
</filter>
<filter id="filter10_di" x="190.608" y="365.88" width="380.794" height="352.698" filterUnits="userSpaceOnUse" color-interpolation-filters="sRGB">
<feFlood flood-opacity="0" result="BackgroundImageFix"/>
<feColorMatrix in="SourceAlpha" type="matrix" values="0 0 0 0 0 0 0 0 0 0 0 0 0 0 0 0 0 0 127 0" result="hardAlpha"/>
<feOffset dx="7.71901" dy="5.34393"/>
<feGaussianBlur stdDeviation="1.48442"/>
<feColorMatrix type="matrix" values="0 0 0 0 1 0 0 0 0 0 0 0 0 0 0.12 0 0 0 1 0"/>
<feBlend mode="normal" in2="BackgroundImageFix" result="effect1_dropShadow"/>
<feBlend mode="normal" in="SourceGraphic" in2="effect1_dropShadow" result="shape"/>
<feColorMatrix in="SourceAlpha" type="matrix" values="0 0 0 0 0 0 0 0 0 0 0 0 0 0 0 0 0 0 127 0" result="hardAlpha"/>
<feOffset dx="-19.5944" dy="-15.0507"/>
<feGaussianBlur stdDeviation="15.0507"/>
<feComposite in2="hardAlpha" operator="arithmetic" k2="-1" k3="1"/>
<feColorMatrix type="matrix" values="0 0 0 0 0 0 0 0 0 1 0 0 0 0 0.94 0 0 0 0.31 0"/>
<feBlend mode="normal" in2="shape" result="effect2_innerShadow"/>
</filter>
<filter id="filter11_f" x="211.546" y="309.973" width="242.536" height="168.418" filterUnits="userSpaceOnUse" color-interpolation-filters="sRGB">
<feFlood flood-opacity="0" result="BackgroundImageFix"/>
<feBlend mode="normal" in="SourceGraphic" in2="BackgroundImageFix" result="shape"/>
<feGaussianBlur stdDeviation="29.6885" result="effect1_foregroundBlur"/>
</filter>
<filter id="filter12_f" x="233.845" y="318.876" width="197.938" height="150.614" filterUnits="userSpaceOnUse" color-interpolation-filters="sRGB">
<feFlood flood-opacity="0" result="BackgroundImageFix"/>
<feBlend mode="normal" in="SourceGraphic" in2="BackgroundImageFix" result="shape"/>
<feGaussianBlur stdDeviation="29.6885" result="effect1_foregroundBlur"/>
</filter>
<filter id="filter13_f" x="182.062" y="473.581" width="398.265" height="303.437" filterUnits="userSpaceOnUse" color-interpolation-filters="sRGB">
<feFlood flood-opacity="0" result="BackgroundImageFix"/>
<feBlend mode="normal" in="SourceGraphic" in2="BackgroundImageFix" result="shape"/>
<feGaussianBlur stdDeviation="44.5327" result="effect1_foregroundBlur"/>
</filter>
<filter id="filter14_f" x="393.969" y="615.478" width="149.636" height="140.439" filterUnits="userSpaceOnUse" color-interpolation-filters="sRGB">
<feFlood flood-opacity="0" result="BackgroundImageFix"/>
<feBlend mode="normal" in="SourceGraphic" in2="BackgroundImageFix" result="shape"/>
<feGaussianBlur stdDeviation="20.7819" result="effect1_foregroundBlur"/>
</filter>
<filter id="filter15_f" x="424.992" y="664.57" width="70.7827" height="67.9605" filterUnits="userSpaceOnUse" color-interpolation-filters="sRGB">
<feFlood flood-opacity="0" result="BackgroundImageFix"/>
<feBlend mode="normal" in="SourceGraphic" in2="BackgroundImageFix" result="shape"/>
<feGaussianBlur stdDeviation="11.8754" result="effect1_foregroundBlur"/>
</filter>
<filter id="filter16_f" x="349.361" y="649.409" width="118.333" height="116.246" filterUnits="userSpaceOnUse" color-interpolation-filters="sRGB">
<feFlood flood-opacity="0" result="BackgroundImageFix"/>
<feBlend mode="normal" in="SourceGraphic" in2="BackgroundImageFix" result="shape"/>
<feGaussianBlur stdDeviation="20.7819" result="effect1_foregroundBlur"/>
</filter>
<filter id="filter17_f" x="283.61" y="646.629" width="131.572" height="127.37" filterUnits="userSpaceOnUse" color-interpolation-filters="sRGB">
<feFlood flood-opacity="0" result="BackgroundImageFix"/>
<feBlend mode="normal" in="SourceGraphic" in2="BackgroundImageFix" result="shape"/>
<feGaussianBlur stdDeviation="20.7819" result="effect1_foregroundBlur"/>
</filter>
<filter id="filter18_dd" x="215.461" y="452.209" width="172.331" height="178.926" filterUnits="userSpaceOnUse" color-interpolation-filters="sRGB">
<feFlood flood-opacity="0" result="BackgroundImageFix"/>
<feColorMatrix in="SourceAlpha" type="matrix" values="0 0 0 0 0 0 0 0 0 0 0 0 0 0 0 0 0 0 127 0" result="hardAlpha"/>
<feOffset dx="6.66956" dy="23.8198"/>
<feGaussianBlur stdDeviation="19.5323"/>
<feColorMatrix type="matrix" values="0 0 0 0 0.909804 0 0 0 0 0.164706 0 0 0 0 0.254902 0 0 0 0.77 0"/>
<feBlend mode="normal" in2="BackgroundImageFix" result="effect1_dropShadow"/>
<feColorMatrix in="SourceAlpha" type="matrix" values="0 0 0 0 0 0 0 0 0 0 0 0 0 0 0 0 0 0 127 0" result="hardAlpha"/>
<feOffset dx="-4.76397" dy="-4.76397"/>
<feGaussianBlur stdDeviation="7.14595"/>
<feColorMatrix type="matrix" values="0 0 0 0 1 0 0 0 0 1 0 0 0 0 1 0 0 0 0.59 0"/>
<feBlend mode="normal" in2="effect1_dropShadow" result="effect2_dropShadow"/>
<feBlend mode="normal" in="SourceGraphic" in2="effect2_dropShadow" result="shape"/>
</filter>
<filter id="filter19_dd" x="379.098" y="452.209" width="172.331" height="178.926" filterUnits="userSpaceOnUse" color-interpolation-filters="sRGB">
<feFlood flood-opacity="0" result="BackgroundImageFix"/>
<feColorMatrix in="SourceAlpha" type="matrix" values="0 0 0 0 0 0 0 0 0 0 0 0 0 0 0 0 0 0 127 0" result="hardAlpha"/>
<feOffset dx="-6.66956" dy="23.8198"/>
<feGaussianBlur stdDeviation="19.5323"/>
<feColorMatrix type="matrix" values="0 0 0 0 0.908677 0 0 0 0 0.163858 0 0 0 0 0.253237 0 0 0 0.94 0"/>
<feBlend mode="normal" in2="BackgroundImageFix" result="effect1_dropShadow"/>
<feColorMatrix in="SourceAlpha" type="matrix" values="0 0 0 0 0 0 0 0 0 0 0 0 0 0 0 0 0 0 127 0" result="hardAlpha"/>
<feOffset dx="4.76397" dy="-4.76397"/>
<feGaussianBlur stdDeviation="7.14595"/>
<feColorMatrix type="matrix" values="0 0 0 0 1 0 0 0 0 1 0 0 0 0 1 0 0 0 0.59 0"/>
<feBlend mode="normal" in2="effect1_dropShadow" result="effect2_dropShadow"/>
<feBlend mode="normal" in="SourceGraphic" in2="effect2_dropShadow" result="shape"/>
</filter>
<linearGradient id="paint0_linear" x1="483.5" y1="-71" x2="1182.5" y2="952.5" gradientUnits="userSpaceOnUse">
<stop stop-color="#2E0916" stop-opacity="0.97"/>
<stop offset="1" stop-color="#55465E"/>
</linearGradient>
<linearGradient id="paint1_linear" x1="524.775" y1="258.563" x2="456.89" y2="606.881" gradientUnits="userSpaceOnUse">
<stop stop-color="#FF8DAF" stop-opacity="0"/>
<stop offset="0.50718" stop-color="#FF4672" stop-opacity="0.12"/>
<stop offset="1" stop-color="#FF00F5" stop-opacity="0"/>
</linearGradient>
<linearGradient id="paint2_linear" x1="387.096" y1="354.762" x2="387.096" y2="802.678" gradientUnits="userSpaceOnUse">
<stop stop-color="#AA6579"/>
<stop offset="1" stop-color="#F481C2" stop-opacity="0.2"/>
</linearGradient>
<linearGradient id="paint3_linear" x1="387.095" y1="373.504" x2="387.095" y2="566.254" gradientUnits="userSpaceOnUse">
<stop stop-color="#FFCEE9"/>
<stop offset="1" stop-color="white" stop-opacity="0"/>
</linearGradient>
<linearGradient id="paint4_linear" x1="384.195" y1="164.915" x2="384.195" y2="707.714" gradientUnits="userSpaceOnUse">
<stop stop-color="#FF2B84" stop-opacity="0.95"/>
<stop offset="1" stop-color="#F64EC7" stop-opacity="0"/>
</linearGradient>
<linearGradient id="paint5_linear" x1="548.423" y1="305.566" x2="377.638" y2="765.513" gradientUnits="userSpaceOnUse">
<stop stop-color="#CD4C64" stop-opacity="0.15"/>
<stop offset="1" stop-color="#FF3AA5" stop-opacity="0.06"/>
</linearGradient>
<radialGradient id="paint6_radial" cx="0" cy="0" r="1" gradientUnits="userSpaceOnUse" gradientTransform="translate(304.043 375.846) rotate(-0.826129) scale(162.481 270.943)">
<stop stop-color="#B85469" stop-opacity="0.77"/>
<stop offset="1" stop-color="#B21D5C" stop-opacity="0.25"/>
</radialGradient>
<linearGradient id="paint7_linear" x1="600.12" y1="357.786" x2="350.822" y2="666.628" gradientUnits="userSpaceOnUse">
<stop stop-color="#301758"/>
<stop offset="1" stop-color="#301658"/>
</linearGradient>
<linearGradient id="paint8_linear" x1="556.022" y1="367.752" x2="329.806" y2="621.734" gradientUnits="userSpaceOnUse">
<stop stop-color="#CD4C64"/>
<stop offset="1" stop-color="#FF50E3" stop-opacity="0.13"/>
</linearGradient>
<linearGradient id="paint9_linear" x1="308.185" y1="391.56" x2="341.724" y2="464.582" gradientUnits="userSpaceOnUse">
<stop stop-color="white" stop-opacity="0.71"/>
<stop offset="1" stop-color="#FFFFF8" stop-opacity="0.7"/>
</linearGradient>
<radialGradient id="paint10_radial" cx="0" cy="0" r="1" gradientUnits="userSpaceOnUse" gradientTransform="translate(387.424 420.42) rotate(91.086) scale(300.148 235.61)">
<stop stop-color="#FFE5EA"/>
<stop offset="0.420971" stop-color="#FEA3B3"/>
<stop offset="0.74856" stop-color="#FF5B79"/>
<stop offset="0.883981" stop-color="#DE2C4D"/>
<stop offset="1" stop-color="#F08B98"/>
</radialGradient>
<linearGradient id="paint11_linear" x1="381.28" y1="561.448" x2="381.28" y2="687.952" gradientUnits="userSpaceOnUse">
<stop stop-color="#9E4722"/>
<stop offset="1" stop-color="#BB391C" stop-opacity="0.87"/>
</linearGradient>
<linearGradient id="paint12_linear" x1="294.957" y1="478.221" x2="294.996" y2="576.847" gradientUnits="userSpaceOnUse">
<stop stop-color="#2E1E65"/>
<stop offset="1" stop-color="#11082F"/>
</linearGradient>
<linearGradient id="paint13_linear" x1="471.933" y1="478.221" x2="471.972" y2="576.847" gradientUnits="userSpaceOnUse">
<stop stop-color="#2E1E65"/>
<stop offset="1" stop-color="#11082F"/>
</linearGradient>
<clipPath id="clip0">
<rect width="1440" height="1024" fill="white" transform="translate(0 -25)"/>
</clipPath>
</defs>
</svg>
