<svg width="555" height="504" viewBox="0 0 555 504" fill="none" xmlns="http://www.w3.org/2000/svg">
<g id="jars">
<g id="jar-2">
<path id="Vector" d="M359.455 176.771C354.753 176.771 350.253 178.667 346.827 182.012C343.469 185.364 341.588 189.949 341.588 194.757L341.655 215.263V223.2C337.961 224.284 335.073 227.738 335.073 231.869C335.073 236.948 339.237 241.011 344.208 241.011H355.29V246.835L338.969 258.145C327.349 266.271 320.498 279.409 320.498 293.495V436.387C320.498 460.428 339.976 480 363.821 480H478.744C502.589 480 522 460.428 522 436.387V293.495C522 279.409 515.149 266.271 503.529 258.145L487.274 246.835V241.011H498.357C503.26 241.011 507.29 236.948 507.29 231.869C507.29 227.738 504.536 224.284 500.842 223.2V194.757C500.842 189.949 498.962 185.364 495.603 182.012C492.178 178.667 487.677 176.771 482.976 176.771H359.455ZM359.455 188.859H483.043C484.521 188.859 486.065 189.516 487.14 190.606C488.013 191.486 488.551 192.57 488.685 193.809L413.39 202.037C410.032 202.403 407.681 205.39 408.017 208.742C408.353 212.114 411.375 214.498 414.599 214.146L488.752 205.972V222.794H353.678V220.803L383.232 217.579C386.59 217.16 388.941 214.214 388.605 210.848C388.27 207.503 385.247 205.098 382.023 205.457L353.678 208.593V194.757C353.678 193.152 354.35 191.703 355.357 190.606C356.432 189.516 358.044 188.859 359.455 188.859V188.859ZM370.269 241.011H472.162V254.826L495.066 270.673C502.454 275.82 506.954 284.421 506.954 293.495V436.387C506.954 452.37 494.26 464.763 478.744 464.763H363.821C348.238 464.763 335.61 452.37 335.61 436.387V293.495C335.61 284.421 340.043 275.82 347.432 270.673L370.269 254.826V241.011ZM443.414 254.623V270.741L476.729 293.969C477.535 294.579 478.072 295.459 478.072 296.543V433.408C478.072 439.977 476.057 445.801 472.363 450.947C481.028 450.135 490.498 442.144 490.498 433.408V296.475C490.498 290.854 487.812 285.504 483.244 282.321L455.907 263.291V254.623H443.414Z" fill="#4E3926" fill-opacity="0.64"/>
<g id="firefly">
<g id="Ellipse 1" filter="url(#filter0_f_6_180)">
<ellipse cx="378.958" cy="452.805" rx="14.9261" ry="14.9575" fill="#FFED48"/>
</g>
<g id="Ellipse 2" filter="url(#filter1_f_6_180)">
<ellipse cx="378.958" cy="452.805" rx="14.9261" ry="14.9575" fill="#FFED48" fill-opacity="0.7"/>
</g>
</g>
<g id="firefly_2">
<g id="Ellipse 1_2" filter="url(#filter2_f_6_180)">
<ellipse cx="408.81" cy="392.975" rx="14.9261" ry="14.9575" fill="#FFED48"/>
</g>
<g id="Ellipse 2_2" filter="url(#filter3_f_6_180)">
<ellipse cx="408.81" cy="392.975" rx="14.9261" ry="14.9575" fill="#FFED48" fill-opacity="0.7"/>
</g>
</g>
<g id="firefly_3">
<g id="Ellipse 1_3" filter="url(#filter4_f_6_180)">
<ellipse cx="418.139" cy="437.677" rx="9.32882" ry="9.34844" fill="#FFED48"/>
</g>
<g id="Ellipse 2_3" filter="url(#filter5_f_6_180)">
<ellipse cx="418.139" cy="437.677" rx="9.32882" ry="9.34844" fill="#FFED48" fill-opacity="0.7"/>
</g>
</g>
<g id="firefly_4">
<g id="Ellipse 1_4" filter="url(#filter6_f_6_180)">
<ellipse cx="418.139" cy="437.677" rx="9.32882" ry="9.34844" fill="#FFED48"/>
</g>
<g id="Ellipse 2_4" filter="url(#filter7_f_6_180)">
<ellipse cx="418.139" cy="437.677" rx="9.32882" ry="9.34844" fill="#FFED48" fill-opacity="0.7"/>
</g>
</g>
<g id="firefly_5">
<g id="Ellipse 1_5" filter="url(#filter8_f_6_180)">
<ellipse cx="354.703" cy="368.329" rx="9.32882" ry="9.34844" fill="#FFED48"/>
</g>
<g id="Ellipse 2_5" filter="url(#filter9_f_6_180)">
<ellipse cx="354.703" cy="368.329" rx="9.32882" ry="9.34844" fill="#FFED48" fill-opacity="0.7"/>
</g>
</g>
<g id="firefly_6">
<g id="Ellipse 1_6" filter="url(#filter10_f_6_180)">
<ellipse cx="446.748" cy="345.212" rx="9.32882" ry="9.34844" fill="#FFED48"/>
</g>
<g id="Ellipse 2_6" filter="url(#filter11_f_6_180)">
<ellipse cx="446.748" cy="345.212" rx="9.32882" ry="9.34844" fill="#FFED48" fill-opacity="0.7"/>
</g>
</g>
<g id="firefly_7">
<g id="Ellipse 1_7" filter="url(#filter12_f_6_180)">
<ellipse cx="446.748" cy="345.212" rx="9.32882" ry="9.34844" fill="#FFED48"/>
</g>
<g id="Ellipse 2_7" filter="url(#filter13_f_6_180)">
<ellipse cx="446.748" cy="345.212" rx="9.32882" ry="9.34844" fill="#FFED48" fill-opacity="0.7"/>
</g>
</g>
<g id="firefly_8">
<g id="Ellipse 1_8" filter="url(#filter14_f_6_180)">
<ellipse cx="505.208" cy="387.365" rx="9.32882" ry="9.34844" fill="#FFED48"/>
</g>
<g id="Ellipse 2_8" filter="url(#filter15_f_6_180)">
<ellipse cx="505.208" cy="387.365" rx="9.32882" ry="9.34844" fill="#FFED48" fill-opacity="0.7"/>
</g>
</g>
<g id="firefly_9">
<g id="Ellipse 1_9" filter="url(#filter16_f_6_180)">
<ellipse cx="394.506" cy="309.858" rx="9.32882" ry="9.34844" fill="#FFED48"/>
</g>
<g id="Ellipse 2_9" filter="url(#filter17_f_6_180)">
<ellipse cx="394.506" cy="309.858" rx="9.32882" ry="9.34844" fill="#FFED48" fill-opacity="0.7"/>
</g>
</g>
<g id="firefly_10">
<g id="Ellipse 1_10" filter="url(#filter18_f_6_180)">
<ellipse cx="408.188" cy="270.425" rx="9.32882" ry="9.34844" fill="#FFED48"/>
</g>
<g id="Ellipse 2_10" filter="url(#filter19_f_6_180)">
<ellipse cx="408.188" cy="270.425" rx="9.32882" ry="9.34844" fill="#FFED48" fill-opacity="0.7"/>
</g>
</g>
<g id="firefly_11">
<g id="Ellipse 1_11" filter="url(#filter20_f_6_180)">
<ellipse cx="455.454" cy="294.901" rx="9.32882" ry="9.34844" fill="#FFED48"/>
</g>
<g id="Ellipse 2_11" filter="url(#filter21_f_6_180)">
<ellipse cx="436.797" cy="294.901" rx="9.32882" ry="9.34844" fill="#FFED48" fill-opacity="0.7"/>
</g>
</g>
<g id="firefly_12">
<g id="Ellipse 1_12" filter="url(#filter22_f_6_180)">
<ellipse cx="455.454" cy="407.762" rx="9.32882" ry="9.34844" fill="#FFED48"/>
</g>
<g id="Ellipse 2_12" filter="url(#filter23_f_6_180)">
<ellipse cx="455.454" cy="407.762" rx="9.32882" ry="9.34844" fill="#FFED48" fill-opacity="0.7"/>
</g>
</g>
<g id="firefly_13">
<g id="Ellipse 1_13" filter="url(#filter24_f_6_180)">
<ellipse cx="446.748" cy="452.635" rx="9.32882" ry="9.34844" fill="#FFED48"/>
</g>
<g id="Ellipse 2_13" filter="url(#filter25_f_6_180)">
<ellipse cx="446.748" cy="452.635" rx="9.32882" ry="9.34844" fill="#FFED48" fill-opacity="0.7"/>
</g>
</g>
</g>
<g id="jar-1">
<path id="Vector_2" d="M71.1071 0C64.577 0 58.3267 3.00161 53.569 8.2973C48.9046 13.6037 46.2925 20.8612 46.2925 28.4724L46.3858 60.9326V73.4965C41.2549 75.2117 37.2435 80.6789 37.2435 87.2182C37.2435 95.2582 43.0274 101.69 49.9307 101.69H65.3233V110.909L42.6542 128.812C26.5154 141.676 17 162.473 17 184.77V410.963C17 449.019 44.0536 480 77.1709 480H236.787C269.904 480 296.865 449.019 296.865 410.963V184.77C296.865 162.473 287.349 141.676 271.21 128.812L248.635 110.909V101.69H264.027C270.837 101.69 276.434 95.2582 276.434 87.2182C276.434 80.6789 272.61 75.2117 267.479 73.4965V28.4724C267.479 20.8612 264.867 13.6037 260.202 8.2973C255.445 3.00161 249.194 0 242.664 0H71.1071ZM71.1071 19.1353H242.757C244.81 19.1353 246.955 20.1751 248.448 21.901C249.661 23.2946 250.407 25.0098 250.594 26.9716L146.018 39.9964C141.353 40.5753 138.088 45.3028 138.554 50.6093C139.021 55.9478 143.219 59.7213 147.697 59.1638L250.687 46.2248V72.8533H63.0844V69.7016L104.131 64.5989C108.796 63.9343 112.061 59.271 111.594 53.9432C111.128 48.6475 106.93 44.8419 102.452 45.41L63.0844 50.3734V28.4724C63.0844 25.9318 64.0172 23.6377 65.4166 21.901C66.9092 20.1751 69.1481 19.1353 71.1071 19.1353V19.1353ZM86.1265 101.69H227.645V123.559L259.456 148.644C269.718 156.791 275.968 170.406 275.968 184.77V410.963C275.968 436.262 258.337 455.88 236.787 455.88H77.1709C55.528 455.88 37.9898 436.262 37.9898 410.963V184.77C37.9898 170.406 44.1469 156.791 54.4086 148.644L86.1265 123.559V101.69ZM187.717 123.237V148.751L233.988 185.521C235.108 186.486 235.854 187.879 235.854 189.594V406.246C235.854 416.645 233.055 425.864 227.925 434.011C239.959 432.725 253.112 420.075 253.112 406.246V189.487C253.112 180.59 249.381 172.121 243.037 167.082L205.069 136.959V123.237H187.717Z" fill="#4E3926" fill-opacity="0.64"/>
<g id="firefly_14">
<g id="Ellipse 1_14" filter="url(#filter26_f_6_180)">
<ellipse cx="84.1675" cy="407.932" rx="14.9261" ry="14.9575" fill="#FFED48"/>
</g>
<g id="Ellipse 2_14" filter="url(#filter27_f_6_180)">
<ellipse cx="84.1675" cy="407.932" rx="14.9261" ry="14.9575" fill="#FFED48" fill-opacity="0.7"/>
</g>
</g>
<g id="firefly_15">
<g id="Ellipse 1_15" filter="url(#filter28_f_6_180)">
<ellipse cx="156.31" cy="437.847" rx="14.9261" ry="14.9575" fill="#FFED48"/>
</g>
<g id="Ellipse 2_15" filter="url(#filter29_f_6_180)">
<ellipse cx="156.31" cy="437.847" rx="14.9261" ry="14.9575" fill="#FFED48" fill-opacity="0.7"/>
</g>
</g>
<g id="firefly_16">
<g id="Ellipse 1_16" filter="url(#filter30_f_6_180)">
<ellipse cx="186.163" cy="383.456" rx="14.9261" ry="14.9575" fill="#FFED48"/>
</g>
<g id="Ellipse 2_16" filter="url(#filter31_f_6_180)">
<ellipse cx="186.163" cy="383.456" rx="14.9261" ry="14.9575" fill="#FFED48" fill-opacity="0.7"/>
</g>
</g>
<g id="firefly_17">
<g id="Ellipse 1_17" filter="url(#filter32_f_6_180)">
<ellipse cx="257.062" cy="422.89" rx="14.9261" ry="14.9575" fill="#FFED48"/>
</g>
<g id="Ellipse 2_17" filter="url(#filter33_f_6_180)">
<ellipse cx="257.062" cy="422.89" rx="14.9261" ry="14.9575" fill="#FFED48" fill-opacity="0.7"/>
</g>
</g>
<g id="firefly_18">
<g id="Ellipse 1_18" filter="url(#filter34_f_6_180)">
<ellipse cx="216.015" cy="314.108" rx="14.9261" ry="14.9575" fill="#FFED48"/>
</g>
<g id="Ellipse 2_18" filter="url(#filter35_f_6_180)">
<ellipse cx="216.015" cy="314.108" rx="14.9261" ry="14.9575" fill="#FFED48" fill-opacity="0.7"/>
</g>
</g>
<g id="firefly_19">
<g id="Ellipse 1_19" filter="url(#filter36_f_6_180)">
<ellipse cx="174.968" cy="205.326" rx="14.9261" ry="14.9575" fill="#FFED48"/>
</g>
<g id="Ellipse 2_19" filter="url(#filter37_f_6_180)">
<ellipse cx="174.968" cy="205.326" rx="14.9261" ry="14.9575" fill="#FFED48" fill-opacity="0.7"/>
</g>
</g>
<g id="firefly_20">
<g id="Ellipse 1_20" filter="url(#filter38_f_6_180)">
<ellipse cx="137.653" cy="319.547" rx="14.9261" ry="14.9575" fill="#FFED48"/>
</g>
<g id="Ellipse 2_20" filter="url(#filter39_f_6_180)">
<ellipse cx="137.653" cy="319.547" rx="14.9261" ry="14.9575" fill="#FFED48" fill-opacity="0.7"/>
</g>
</g>
<g id="firefly_21">
<g id="Ellipse 1_21" filter="url(#filter40_f_6_180)">
<ellipse cx="105.313" cy="265.156" rx="14.9261" ry="14.9575" fill="#FFED48"/>
</g>
<g id="Ellipse 2_21" filter="url(#filter41_f_6_180)">
<ellipse cx="105.313" cy="265.156" rx="14.9261" ry="14.9575" fill="#FFED48" fill-opacity="0.7"/>
</g>
</g>
<g id="firefly_22">
<g id="Ellipse 1_22" filter="url(#filter42_f_6_180)">
<ellipse cx="105.313" cy="265.156" rx="14.9261" ry="14.9575" fill="#FFED48"/>
</g>
<g id="Ellipse 2_22" filter="url(#filter43_f_6_180)">
<ellipse cx="105.313" cy="265.156" rx="14.9261" ry="14.9575" fill="#FFED48" fill-opacity="0.7"/>
</g>
</g>
<g id="firefly_23">
<g id="Ellipse 1_23" filter="url(#filter44_f_6_180)">
<ellipse cx="146.982" cy="329.688" rx="15.548" ry="15.5807" fill="#FFED48"/>
</g>
<g id="Ellipse 2_23" filter="url(#filter45_f_6_180)">
<ellipse cx="146.982" cy="329.688" rx="15.548" ry="15.5807" fill="#FFED48" fill-opacity="0.7"/>
</g>
</g>
<g id="firefly_24">
<g id="Ellipse 1_24" filter="url(#filter46_f_6_180)">
<ellipse cx="132.055" cy="392.805" rx="9.32882" ry="9.34844" fill="#FFED48"/>
</g>
<g id="Ellipse 2_24" filter="url(#filter47_f_6_180)">
<ellipse cx="132.055" cy="392.805" rx="9.32882" ry="9.34844" fill="#FFED48" fill-opacity="0.7"/>
</g>
</g>
<g id="firefly_25">
<g id="Ellipse 1_25" filter="url(#filter48_f_6_180)">
<ellipse cx="171.858" cy="289.462" rx="9.32882" ry="9.34844" fill="#FFED48"/>
</g>
<g id="Ellipse 2_25" filter="url(#filter49_f_6_180)">
<ellipse cx="171.858" cy="289.462" rx="9.32882" ry="9.34844" fill="#FFED48" fill-opacity="0.7"/>
</g>
</g>
<g id="firefly_26">
<g id="Ellipse 1_26" filter="url(#filter50_f_6_180)">
<ellipse cx="132.055" cy="167.082" rx="9.32882" ry="9.34844" fill="#FFED48"/>
</g>
<g id="Ellipse 2_26" filter="url(#filter51_f_6_180)">
<ellipse cx="132.055" cy="167.082" rx="9.32882" ry="9.34844" fill="#FFED48" fill-opacity="0.7"/>
</g>
</g>
<g id="firefly_27">
<g id="Ellipse 1_27" filter="url(#filter52_f_6_180)">
<ellipse cx="190.516" cy="116.771" rx="9.32882" ry="9.34844" fill="#FFED48"/>
</g>
<g id="Ellipse 2_27" filter="url(#filter53_f_6_180)">
<ellipse cx="190.516" cy="116.771" rx="9.32882" ry="9.34844" fill="#FFED48" fill-opacity="0.7"/>
</g>
</g>
<g id="firefly_28">
<g id="Ellipse 1_28" filter="url(#filter54_f_6_180)">
<ellipse cx="211.661" cy="240.51" rx="9.32882" ry="9.34844" fill="#FFED48"/>
</g>
<g id="Ellipse 2_28" filter="url(#filter55_f_6_180)">
<ellipse cx="211.661" cy="240.51" rx="9.32882" ry="9.34844" fill="#FFED48" fill-opacity="0.7"/>
</g>
</g>
<g id="firefly_29">
<g id="Ellipse 1_29" filter="url(#filter56_f_6_180)">
<ellipse cx="99.7155" cy="343.853" rx="9.32882" ry="9.34844" fill="#FFED48"/>
</g>
<g id="Ellipse 2_29" filter="url(#filter57_f_6_180)">
<ellipse cx="99.7155" cy="343.853" rx="9.32882" ry="9.34844" fill="#FFED48" fill-opacity="0.7"/>
</g>
</g>
<g id="firefly_30">
<g id="Ellipse 1_30" filter="url(#filter58_f_6_180)">
<ellipse cx="211.661" cy="186.119" rx="9.32882" ry="9.34844" fill="#FFED48"/>
</g>
<g id="Ellipse 2_30" filter="url(#filter59_f_6_180)">
<ellipse cx="211.661" cy="186.119" rx="9.32882" ry="9.34844" fill="#FFED48" fill-opacity="0.7"/>
</g>
</g>
<g id="firefly_31">
<g id="Ellipse 1_31" filter="url(#filter60_f_6_180)">
<ellipse cx="59.9126" cy="157.564" rx="9.32882" ry="9.34844" fill="#FFED48"/>
</g>
<g id="Ellipse 2_31" filter="url(#filter61_f_6_180)">
<ellipse cx="59.9126" cy="157.564" rx="9.32882" ry="9.34844" fill="#FFED48" fill-opacity="0.7"/>
</g>
</g>
<g id="firefly_32">
<g id="Ellipse 1_32" filter="url(#filter62_f_6_180)">
<ellipse cx="49.9618" cy="383.286" rx="9.32882" ry="9.34844" fill="#FFED48"/>
</g>
<g id="Ellipse 2_32" filter="url(#filter63_f_6_180)">
<ellipse cx="49.9618" cy="383.286" rx="9.32882" ry="9.34844" fill="#FFED48" fill-opacity="0.7"/>
</g>
</g>
<g id="firefly_33">
<g id="Ellipse 1_33" filter="url(#filter64_f_6_180)">
<ellipse cx="184.297" cy="418.64" rx="9.32882" ry="9.34844" fill="#FFED48"/>
</g>
<g id="Ellipse 2_33" filter="url(#filter65_f_6_180)">
<ellipse cx="184.297" cy="418.64" rx="9.32882" ry="9.34844" fill="#FFED48" fill-opacity="0.7"/>
</g>
</g>
</g>
</g>
<defs>
<filter id="filter0_f_6_180" x="324.032" y="397.847" width="109.852" height="109.915" filterUnits="userSpaceOnUse" color-interpolation-filters="sRGB">
<feFlood flood-opacity="0" result="BackgroundImageFix"/>
<feBlend mode="normal" in="SourceGraphic" in2="BackgroundImageFix" result="shape"/>
<feGaussianBlur stdDeviation="20" result="effect1_foregroundBlur_6_180"/>
</filter>
<filter id="filter1_f_6_180" x="354.032" y="427.847" width="49.8522" height="49.915" filterUnits="userSpaceOnUse" color-interpolation-filters="sRGB">
<feFlood flood-opacity="0" result="BackgroundImageFix"/>
<feBlend mode="normal" in="SourceGraphic" in2="BackgroundImageFix" result="shape"/>
<feGaussianBlur stdDeviation="5" result="effect1_foregroundBlur_6_180"/>
</filter>
<filter id="filter2_f_6_180" x="353.884" y="338.017" width="109.852" height="109.915" filterUnits="userSpaceOnUse" color-interpolation-filters="sRGB">
<feFlood flood-opacity="0" result="BackgroundImageFix"/>
<feBlend mode="normal" in="SourceGraphic" in2="BackgroundImageFix" result="shape"/>
<feGaussianBlur stdDeviation="20" result="effect1_foregroundBlur_6_180"/>
</filter>
<filter id="filter3_f_6_180" x="383.884" y="368.017" width="49.8522" height="49.915" filterUnits="userSpaceOnUse" color-interpolation-filters="sRGB">
<feFlood flood-opacity="0" result="BackgroundImageFix"/>
<feBlend mode="normal" in="SourceGraphic" in2="BackgroundImageFix" result="shape"/>
<feGaussianBlur stdDeviation="5" result="effect1_foregroundBlur_6_180"/>
</filter>
<filter id="filter4_f_6_180" x="368.81" y="388.329" width="98.6576" height="98.6969" filterUnits="userSpaceOnUse" color-interpolation-filters="sRGB">
<feFlood flood-opacity="0" result="BackgroundImageFix"/>
<feBlend mode="normal" in="SourceGraphic" in2="BackgroundImageFix" result="shape"/>
<feGaussianBlur stdDeviation="20" result="effect1_foregroundBlur_6_180"/>
</filter>
<filter id="filter5_f_6_180" x="398.81" y="418.329" width="38.6576" height="38.6969" filterUnits="userSpaceOnUse" color-interpolation-filters="sRGB">
<feFlood flood-opacity="0" result="BackgroundImageFix"/>
<feBlend mode="normal" in="SourceGraphic" in2="BackgroundImageFix" result="shape"/>
<feGaussianBlur stdDeviation="5" result="effect1_foregroundBlur_6_180"/>
</filter>
<filter id="filter6_f_6_180" x="368.81" y="388.329" width="98.6576" height="98.6969" filterUnits="userSpaceOnUse" color-interpolation-filters="sRGB">
<feFlood flood-opacity="0" result="BackgroundImageFix"/>
<feBlend mode="normal" in="SourceGraphic" in2="BackgroundImageFix" result="shape"/>
<feGaussianBlur stdDeviation="20" result="effect1_foregroundBlur_6_180"/>
</filter>
<filter id="filter7_f_6_180" x="398.81" y="418.329" width="38.6576" height="38.6969" filterUnits="userSpaceOnUse" color-interpolation-filters="sRGB">
<feFlood flood-opacity="0" result="BackgroundImageFix"/>
<feBlend mode="normal" in="SourceGraphic" in2="BackgroundImageFix" result="shape"/>
<feGaussianBlur stdDeviation="5" result="effect1_foregroundBlur_6_180"/>
</filter>
<filter id="filter8_f_6_180" x="305.374" y="318.98" width="98.6576" height="98.6969" filterUnits="userSpaceOnUse" color-interpolation-filters="sRGB">
<feFlood flood-opacity="0" result="BackgroundImageFix"/>
<feBlend mode="normal" in="SourceGraphic" in2="BackgroundImageFix" result="shape"/>
<feGaussianBlur stdDeviation="20" result="effect1_foregroundBlur_6_180"/>
</filter>
<filter id="filter9_f_6_180" x="335.374" y="348.98" width="38.6576" height="38.6969" filterUnits="userSpaceOnUse" color-interpolation-filters="sRGB">
<feFlood flood-opacity="0" result="BackgroundImageFix"/>
<feBlend mode="normal" in="SourceGraphic" in2="BackgroundImageFix" result="shape"/>
<feGaussianBlur stdDeviation="5" result="effect1_foregroundBlur_6_180"/>
</filter>
<filter id="filter10_f_6_180" x="397.419" y="295.864" width="98.6576" height="98.6969" filterUnits="userSpaceOnUse" color-interpolation-filters="sRGB">
<feFlood flood-opacity="0" result="BackgroundImageFix"/>
<feBlend mode="normal" in="SourceGraphic" in2="BackgroundImageFix" result="shape"/>
<feGaussianBlur stdDeviation="20" result="effect1_foregroundBlur_6_180"/>
</filter>
<filter id="filter11_f_6_180" x="427.419" y="325.864" width="38.6576" height="38.6969" filterUnits="userSpaceOnUse" color-interpolation-filters="sRGB">
<feFlood flood-opacity="0" result="BackgroundImageFix"/>
<feBlend mode="normal" in="SourceGraphic" in2="BackgroundImageFix" result="shape"/>
<feGaussianBlur stdDeviation="5" result="effect1_foregroundBlur_6_180"/>
</filter>
<filter id="filter12_f_6_180" x="397.419" y="295.864" width="98.6576" height="98.6969" filterUnits="userSpaceOnUse" color-interpolation-filters="sRGB">
<feFlood flood-opacity="0" result="BackgroundImageFix"/>
<feBlend mode="normal" in="SourceGraphic" in2="BackgroundImageFix" result="shape"/>
<feGaussianBlur stdDeviation="20" result="effect1_foregroundBlur_6_180"/>
</filter>
<filter id="filter13_f_6_180" x="427.419" y="325.864" width="38.6576" height="38.6969" filterUnits="userSpaceOnUse" color-interpolation-filters="sRGB">
<feFlood flood-opacity="0" result="BackgroundImageFix"/>
<feBlend mode="normal" in="SourceGraphic" in2="BackgroundImageFix" result="shape"/>
<feGaussianBlur stdDeviation="5" result="effect1_foregroundBlur_6_180"/>
</filter>
<filter id="filter14_f_6_180" x="455.879" y="338.017" width="98.6576" height="98.6969" filterUnits="userSpaceOnUse" color-interpolation-filters="sRGB">
<feFlood flood-opacity="0" result="BackgroundImageFix"/>
<feBlend mode="normal" in="SourceGraphic" in2="BackgroundImageFix" result="shape"/>
<feGaussianBlur stdDeviation="20" result="effect1_foregroundBlur_6_180"/>
</filter>
<filter id="filter15_f_6_180" x="485.879" y="368.017" width="38.6576" height="38.6969" filterUnits="userSpaceOnUse" color-interpolation-filters="sRGB">
<feFlood flood-opacity="0" result="BackgroundImageFix"/>
<feBlend mode="normal" in="SourceGraphic" in2="BackgroundImageFix" result="shape"/>
<feGaussianBlur stdDeviation="5" result="effect1_foregroundBlur_6_180"/>
</filter>
<filter id="filter16_f_6_180" x="345.177" y="260.51" width="98.6576" height="98.6969" filterUnits="userSpaceOnUse" color-interpolation-filters="sRGB">
<feFlood flood-opacity="0" result="BackgroundImageFix"/>
<feBlend mode="normal" in="SourceGraphic" in2="BackgroundImageFix" result="shape"/>
<feGaussianBlur stdDeviation="20" result="effect1_foregroundBlur_6_180"/>
</filter>
<filter id="filter17_f_6_180" x="375.177" y="290.51" width="38.6576" height="38.6969" filterUnits="userSpaceOnUse" color-interpolation-filters="sRGB">
<feFlood flood-opacity="0" result="BackgroundImageFix"/>
<feBlend mode="normal" in="SourceGraphic" in2="BackgroundImageFix" result="shape"/>
<feGaussianBlur stdDeviation="5" result="effect1_foregroundBlur_6_180"/>
</filter>
<filter id="filter18_f_6_180" x="358.86" y="221.076" width="98.6576" height="98.6969" filterUnits="userSpaceOnUse" color-interpolation-filters="sRGB">
<feFlood flood-opacity="0" result="BackgroundImageFix"/>
<feBlend mode="normal" in="SourceGraphic" in2="BackgroundImageFix" result="shape"/>
<feGaussianBlur stdDeviation="20" result="effect1_foregroundBlur_6_180"/>
</filter>
<filter id="filter19_f_6_180" x="388.86" y="251.076" width="38.6576" height="38.6969" filterUnits="userSpaceOnUse" color-interpolation-filters="sRGB">
<feFlood flood-opacity="0" result="BackgroundImageFix"/>
<feBlend mode="normal" in="SourceGraphic" in2="BackgroundImageFix" result="shape"/>
<feGaussianBlur stdDeviation="5" result="effect1_foregroundBlur_6_180"/>
</filter>
<filter id="filter20_f_6_180" x="406.126" y="245.552" width="98.6576" height="98.6969" filterUnits="userSpaceOnUse" color-interpolation-filters="sRGB">
<feFlood flood-opacity="0" result="BackgroundImageFix"/>
<feBlend mode="normal" in="SourceGraphic" in2="BackgroundImageFix" result="shape"/>
<feGaussianBlur stdDeviation="20" result="effect1_foregroundBlur_6_180"/>
</filter>
<filter id="filter21_f_6_180" x="417.468" y="275.552" width="38.6576" height="38.6969" filterUnits="userSpaceOnUse" color-interpolation-filters="sRGB">
<feFlood flood-opacity="0" result="BackgroundImageFix"/>
<feBlend mode="normal" in="SourceGraphic" in2="BackgroundImageFix" result="shape"/>
<feGaussianBlur stdDeviation="5" result="effect1_foregroundBlur_6_180"/>
</filter>
<filter id="filter22_f_6_180" x="406.126" y="358.414" width="98.6576" height="98.6969" filterUnits="userSpaceOnUse" color-interpolation-filters="sRGB">
<feFlood flood-opacity="0" result="BackgroundImageFix"/>
<feBlend mode="normal" in="SourceGraphic" in2="BackgroundImageFix" result="shape"/>
<feGaussianBlur stdDeviation="20" result="effect1_foregroundBlur_6_180"/>
</filter>
<filter id="filter23_f_6_180" x="436.126" y="388.414" width="38.6576" height="38.6969" filterUnits="userSpaceOnUse" color-interpolation-filters="sRGB">
<feFlood flood-opacity="0" result="BackgroundImageFix"/>
<feBlend mode="normal" in="SourceGraphic" in2="BackgroundImageFix" result="shape"/>
<feGaussianBlur stdDeviation="5" result="effect1_foregroundBlur_6_180"/>
</filter>
<filter id="filter24_f_6_180" x="397.419" y="403.286" width="98.6576" height="98.6969" filterUnits="userSpaceOnUse" color-interpolation-filters="sRGB">
<feFlood flood-opacity="0" result="BackgroundImageFix"/>
<feBlend mode="normal" in="SourceGraphic" in2="BackgroundImageFix" result="shape"/>
<feGaussianBlur stdDeviation="20" result="effect1_foregroundBlur_6_180"/>
</filter>
<filter id="filter25_f_6_180" x="427.419" y="433.286" width="38.6576" height="38.6969" filterUnits="userSpaceOnUse" color-interpolation-filters="sRGB">
<feFlood flood-opacity="0" result="BackgroundImageFix"/>
<feBlend mode="normal" in="SourceGraphic" in2="BackgroundImageFix" result="shape"/>
<feGaussianBlur stdDeviation="5" result="effect1_foregroundBlur_6_180"/>
</filter>
<filter id="filter26_f_6_180" x="29.2414" y="352.975" width="109.852" height="109.915" filterUnits="userSpaceOnUse" color-interpolation-filters="sRGB">
<feFlood flood-opacity="0" result="BackgroundImageFix"/>
<feBlend mode="normal" in="SourceGraphic" in2="BackgroundImageFix" result="shape"/>
<feGaussianBlur stdDeviation="20" result="effect1_foregroundBlur_6_180"/>
</filter>
<filter id="filter27_f_6_180" x="59.2414" y="382.975" width="49.8522" height="49.915" filterUnits="userSpaceOnUse" color-interpolation-filters="sRGB">
<feFlood flood-opacity="0" result="BackgroundImageFix"/>
<feBlend mode="normal" in="SourceGraphic" in2="BackgroundImageFix" result="shape"/>
<feGaussianBlur stdDeviation="5" result="effect1_foregroundBlur_6_180"/>
</filter>
<filter id="filter28_f_6_180" x="101.384" y="382.89" width="109.852" height="109.915" filterUnits="userSpaceOnUse" color-interpolation-filters="sRGB">
<feFlood flood-opacity="0" result="BackgroundImageFix"/>
<feBlend mode="normal" in="SourceGraphic" in2="BackgroundImageFix" result="shape"/>
<feGaussianBlur stdDeviation="20" result="effect1_foregroundBlur_6_180"/>
</filter>
<filter id="filter29_f_6_180" x="131.384" y="412.89" width="49.8522" height="49.915" filterUnits="userSpaceOnUse" color-interpolation-filters="sRGB">
<feFlood flood-opacity="0" result="BackgroundImageFix"/>
<feBlend mode="normal" in="SourceGraphic" in2="BackgroundImageFix" result="shape"/>
<feGaussianBlur stdDeviation="5" result="effect1_foregroundBlur_6_180"/>
</filter>
<filter id="filter30_f_6_180" x="131.236" y="328.499" width="109.852" height="109.915" filterUnits="userSpaceOnUse" color-interpolation-filters="sRGB">
<feFlood flood-opacity="0" result="BackgroundImageFix"/>
<feBlend mode="normal" in="SourceGraphic" in2="BackgroundImageFix" result="shape"/>
<feGaussianBlur stdDeviation="20" result="effect1_foregroundBlur_6_180"/>
</filter>
<filter id="filter31_f_6_180" x="161.236" y="358.499" width="49.8522" height="49.915" filterUnits="userSpaceOnUse" color-interpolation-filters="sRGB">
<feFlood flood-opacity="0" result="BackgroundImageFix"/>
<feBlend mode="normal" in="SourceGraphic" in2="BackgroundImageFix" result="shape"/>
<feGaussianBlur stdDeviation="5" result="effect1_foregroundBlur_6_180"/>
</filter>
<filter id="filter32_f_6_180" x="202.135" y="367.932" width="109.852" height="109.915" filterUnits="userSpaceOnUse" color-interpolation-filters="sRGB">
<feFlood flood-opacity="0" result="BackgroundImageFix"/>
<feBlend mode="normal" in="SourceGraphic" in2="BackgroundImageFix" result="shape"/>
<feGaussianBlur stdDeviation="20" result="effect1_foregroundBlur_6_180"/>
</filter>
<filter id="filter33_f_6_180" x="232.135" y="397.932" width="49.8522" height="49.915" filterUnits="userSpaceOnUse" color-interpolation-filters="sRGB">
<feFlood flood-opacity="0" result="BackgroundImageFix"/>
<feBlend mode="normal" in="SourceGraphic" in2="BackgroundImageFix" result="shape"/>
<feGaussianBlur stdDeviation="5" result="effect1_foregroundBlur_6_180"/>
</filter>
<filter id="filter34_f_6_180" x="161.089" y="259.15" width="109.852" height="109.915" filterUnits="userSpaceOnUse" color-interpolation-filters="sRGB">
<feFlood flood-opacity="0" result="BackgroundImageFix"/>
<feBlend mode="normal" in="SourceGraphic" in2="BackgroundImageFix" result="shape"/>
<feGaussianBlur stdDeviation="20" result="effect1_foregroundBlur_6_180"/>
</filter>
<filter id="filter35_f_6_180" x="191.089" y="289.15" width="49.8522" height="49.915" filterUnits="userSpaceOnUse" color-interpolation-filters="sRGB">
<feFlood flood-opacity="0" result="BackgroundImageFix"/>
<feBlend mode="normal" in="SourceGraphic" in2="BackgroundImageFix" result="shape"/>
<feGaussianBlur stdDeviation="5" result="effect1_foregroundBlur_6_180"/>
</filter>
<filter id="filter36_f_6_180" x="120.042" y="150.368" width="109.852" height="109.915" filterUnits="userSpaceOnUse" color-interpolation-filters="sRGB">
<feFlood flood-opacity="0" result="BackgroundImageFix"/>
<feBlend mode="normal" in="SourceGraphic" in2="BackgroundImageFix" result="shape"/>
<feGaussianBlur stdDeviation="20" result="effect1_foregroundBlur_6_180"/>
</filter>
<filter id="filter37_f_6_180" x="150.042" y="180.368" width="49.8522" height="49.915" filterUnits="userSpaceOnUse" color-interpolation-filters="sRGB">
<feFlood flood-opacity="0" result="BackgroundImageFix"/>
<feBlend mode="normal" in="SourceGraphic" in2="BackgroundImageFix" result="shape"/>
<feGaussianBlur stdDeviation="5" result="effect1_foregroundBlur_6_180"/>
</filter>
<filter id="filter38_f_6_180" x="82.7266" y="264.589" width="109.852" height="109.915" filterUnits="userSpaceOnUse" color-interpolation-filters="sRGB">
<feFlood flood-opacity="0" result="BackgroundImageFix"/>
<feBlend mode="normal" in="SourceGraphic" in2="BackgroundImageFix" result="shape"/>
<feGaussianBlur stdDeviation="20" result="effect1_foregroundBlur_6_180"/>
</filter>
<filter id="filter39_f_6_180" x="112.727" y="294.589" width="49.8522" height="49.915" filterUnits="userSpaceOnUse" color-interpolation-filters="sRGB">
<feFlood flood-opacity="0" result="BackgroundImageFix"/>
<feBlend mode="normal" in="SourceGraphic" in2="BackgroundImageFix" result="shape"/>
<feGaussianBlur stdDeviation="5" result="effect1_foregroundBlur_6_180"/>
</filter>
<filter id="filter40_f_6_180" x="50.3867" y="210.198" width="109.852" height="109.915" filterUnits="userSpaceOnUse" color-interpolation-filters="sRGB">
<feFlood flood-opacity="0" result="BackgroundImageFix"/>
<feBlend mode="normal" in="SourceGraphic" in2="BackgroundImageFix" result="shape"/>
<feGaussianBlur stdDeviation="20" result="effect1_foregroundBlur_6_180"/>
</filter>
<filter id="filter41_f_6_180" x="80.3867" y="240.198" width="49.8522" height="49.915" filterUnits="userSpaceOnUse" color-interpolation-filters="sRGB">
<feFlood flood-opacity="0" result="BackgroundImageFix"/>
<feBlend mode="normal" in="SourceGraphic" in2="BackgroundImageFix" result="shape"/>
<feGaussianBlur stdDeviation="5" result="effect1_foregroundBlur_6_180"/>
</filter>
<filter id="filter42_f_6_180" x="50.3867" y="210.198" width="109.852" height="109.915" filterUnits="userSpaceOnUse" color-interpolation-filters="sRGB">
<feFlood flood-opacity="0" result="BackgroundImageFix"/>
<feBlend mode="normal" in="SourceGraphic" in2="BackgroundImageFix" result="shape"/>
<feGaussianBlur stdDeviation="20" result="effect1_foregroundBlur_6_180"/>
</filter>
<filter id="filter43_f_6_180" x="80.3867" y="240.198" width="49.8522" height="49.915" filterUnits="userSpaceOnUse" color-interpolation-filters="sRGB">
<feFlood flood-opacity="0" result="BackgroundImageFix"/>
<feBlend mode="normal" in="SourceGraphic" in2="BackgroundImageFix" result="shape"/>
<feGaussianBlur stdDeviation="5" result="effect1_foregroundBlur_6_180"/>
</filter>
<filter id="filter44_f_6_180" x="91.4335" y="274.108" width="111.096" height="111.161" filterUnits="userSpaceOnUse" color-interpolation-filters="sRGB">
<feFlood flood-opacity="0" result="BackgroundImageFix"/>
<feBlend mode="normal" in="SourceGraphic" in2="BackgroundImageFix" result="shape"/>
<feGaussianBlur stdDeviation="20" result="effect1_foregroundBlur_6_180"/>
</filter>
<filter id="filter45_f_6_180" x="121.433" y="304.108" width="51.0961" height="51.1615" filterUnits="userSpaceOnUse" color-interpolation-filters="sRGB">
<feFlood flood-opacity="0" result="BackgroundImageFix"/>
<feBlend mode="normal" in="SourceGraphic" in2="BackgroundImageFix" result="shape"/>
<feGaussianBlur stdDeviation="5" result="effect1_foregroundBlur_6_180"/>
</filter>
<filter id="filter46_f_6_180" x="82.7266" y="343.456" width="98.6577" height="98.6969" filterUnits="userSpaceOnUse" color-interpolation-filters="sRGB">
<feFlood flood-opacity="0" result="BackgroundImageFix"/>
<feBlend mode="normal" in="SourceGraphic" in2="BackgroundImageFix" result="shape"/>
<feGaussianBlur stdDeviation="20" result="effect1_foregroundBlur_6_180"/>
</filter>
<filter id="filter47_f_6_180" x="112.727" y="373.456" width="38.6577" height="38.6969" filterUnits="userSpaceOnUse" color-interpolation-filters="sRGB">
<feFlood flood-opacity="0" result="BackgroundImageFix"/>
<feBlend mode="normal" in="SourceGraphic" in2="BackgroundImageFix" result="shape"/>
<feGaussianBlur stdDeviation="5" result="effect1_foregroundBlur_6_180"/>
</filter>
<filter id="filter48_f_6_180" x="122.53" y="240.113" width="98.6576" height="98.6969" filterUnits="userSpaceOnUse" color-interpolation-filters="sRGB">
<feFlood flood-opacity="0" result="BackgroundImageFix"/>
<feBlend mode="normal" in="SourceGraphic" in2="BackgroundImageFix" result="shape"/>
<feGaussianBlur stdDeviation="20" result="effect1_foregroundBlur_6_180"/>
</filter>
<filter id="filter49_f_6_180" x="152.53" y="270.113" width="38.6576" height="38.6969" filterUnits="userSpaceOnUse" color-interpolation-filters="sRGB">
<feFlood flood-opacity="0" result="BackgroundImageFix"/>
<feBlend mode="normal" in="SourceGraphic" in2="BackgroundImageFix" result="shape"/>
<feGaussianBlur stdDeviation="5" result="effect1_foregroundBlur_6_180"/>
</filter>
<filter id="filter50_f_6_180" x="82.7266" y="117.734" width="98.6577" height="98.6969" filterUnits="userSpaceOnUse" color-interpolation-filters="sRGB">
<feFlood flood-opacity="0" result="BackgroundImageFix"/>
<feBlend mode="normal" in="SourceGraphic" in2="BackgroundImageFix" result="shape"/>
<feGaussianBlur stdDeviation="20" result="effect1_foregroundBlur_6_180"/>
</filter>
<filter id="filter51_f_6_180" x="112.727" y="147.734" width="38.6577" height="38.6969" filterUnits="userSpaceOnUse" color-interpolation-filters="sRGB">
<feFlood flood-opacity="0" result="BackgroundImageFix"/>
<feBlend mode="normal" in="SourceGraphic" in2="BackgroundImageFix" result="shape"/>
<feGaussianBlur stdDeviation="5" result="effect1_foregroundBlur_6_180"/>
</filter>
<filter id="filter52_f_6_180" x="141.187" y="67.4221" width="98.6576" height="98.6969" filterUnits="userSpaceOnUse" color-interpolation-filters="sRGB">
<feFlood flood-opacity="0" result="BackgroundImageFix"/>
<feBlend mode="normal" in="SourceGraphic" in2="BackgroundImageFix" result="shape"/>
<feGaussianBlur stdDeviation="20" result="effect1_foregroundBlur_6_180"/>
</filter>
<filter id="filter53_f_6_180" x="171.187" y="97.4221" width="38.6576" height="38.6969" filterUnits="userSpaceOnUse" color-interpolation-filters="sRGB">
<feFlood flood-opacity="0" result="BackgroundImageFix"/>
<feBlend mode="normal" in="SourceGraphic" in2="BackgroundImageFix" result="shape"/>
<feGaussianBlur stdDeviation="5" result="effect1_foregroundBlur_6_180"/>
</filter>
<filter id="filter54_f_6_180" x="162.333" y="191.161" width="98.6576" height="98.6969" filterUnits="userSpaceOnUse" color-interpolation-filters="sRGB">
<feFlood flood-opacity="0" result="BackgroundImageFix"/>
<feBlend mode="normal" in="SourceGraphic" in2="BackgroundImageFix" result="shape"/>
<feGaussianBlur stdDeviation="20" result="effect1_foregroundBlur_6_180"/>
</filter>
<filter id="filter55_f_6_180" x="192.333" y="221.161" width="38.6576" height="38.6969" filterUnits="userSpaceOnUse" color-interpolation-filters="sRGB">
<feFlood flood-opacity="0" result="BackgroundImageFix"/>
<feBlend mode="normal" in="SourceGraphic" in2="BackgroundImageFix" result="shape"/>
<feGaussianBlur stdDeviation="5" result="effect1_foregroundBlur_6_180"/>
</filter>
<filter id="filter56_f_6_180" x="50.3867" y="294.504" width="98.6577" height="98.6969" filterUnits="userSpaceOnUse" color-interpolation-filters="sRGB">
<feFlood flood-opacity="0" result="BackgroundImageFix"/>
<feBlend mode="normal" in="SourceGraphic" in2="BackgroundImageFix" result="shape"/>
<feGaussianBlur stdDeviation="20" result="effect1_foregroundBlur_6_180"/>
</filter>
<filter id="filter57_f_6_180" x="80.3867" y="324.504" width="38.6577" height="38.6969" filterUnits="userSpaceOnUse" color-interpolation-filters="sRGB">
<feFlood flood-opacity="0" result="BackgroundImageFix"/>
<feBlend mode="normal" in="SourceGraphic" in2="BackgroundImageFix" result="shape"/>
<feGaussianBlur stdDeviation="5" result="effect1_foregroundBlur_6_180"/>
</filter>
<filter id="filter58_f_6_180" x="162.333" y="136.771" width="98.6576" height="98.6969" filterUnits="userSpaceOnUse" color-interpolation-filters="sRGB">
<feFlood flood-opacity="0" result="BackgroundImageFix"/>
<feBlend mode="normal" in="SourceGraphic" in2="BackgroundImageFix" result="shape"/>
<feGaussianBlur stdDeviation="20" result="effect1_foregroundBlur_6_180"/>
</filter>
<filter id="filter59_f_6_180" x="192.333" y="166.771" width="38.6576" height="38.6969" filterUnits="userSpaceOnUse" color-interpolation-filters="sRGB">
<feFlood flood-opacity="0" result="BackgroundImageFix"/>
<feBlend mode="normal" in="SourceGraphic" in2="BackgroundImageFix" result="shape"/>
<feGaussianBlur stdDeviation="5" result="effect1_foregroundBlur_6_180"/>
</filter>
<filter id="filter60_f_6_180" x="10.5837" y="108.215" width="98.6577" height="98.6969" filterUnits="userSpaceOnUse" color-interpolation-filters="sRGB">
<feFlood flood-opacity="0" result="BackgroundImageFix"/>
<feBlend mode="normal" in="SourceGraphic" in2="BackgroundImageFix" result="shape"/>
<feGaussianBlur stdDeviation="20" result="effect1_foregroundBlur_6_180"/>
</filter>
<filter id="filter61_f_6_180" x="40.5837" y="138.215" width="38.6577" height="38.6969" filterUnits="userSpaceOnUse" color-interpolation-filters="sRGB">
<feFlood flood-opacity="0" result="BackgroundImageFix"/>
<feBlend mode="normal" in="SourceGraphic" in2="BackgroundImageFix" result="shape"/>
<feGaussianBlur stdDeviation="5" result="effect1_foregroundBlur_6_180"/>
</filter>
<filter id="filter62_f_6_180" x="0.632996" y="333.938" width="98.6577" height="98.6969" filterUnits="userSpaceOnUse" color-interpolation-filters="sRGB">
<feFlood flood-opacity="0" result="BackgroundImageFix"/>
<feBlend mode="normal" in="SourceGraphic" in2="BackgroundImageFix" result="shape"/>
<feGaussianBlur stdDeviation="20" result="effect1_foregroundBlur_6_180"/>
</filter>
<filter id="filter63_f_6_180" x="30.633" y="363.938" width="38.6577" height="38.6969" filterUnits="userSpaceOnUse" color-interpolation-filters="sRGB">
<feFlood flood-opacity="0" result="BackgroundImageFix"/>
<feBlend mode="normal" in="SourceGraphic" in2="BackgroundImageFix" result="shape"/>
<feGaussianBlur stdDeviation="5" result="effect1_foregroundBlur_6_180"/>
</filter>
<filter id="filter64_f_6_180" x="134.968" y="369.292" width="98.6576" height="98.6969" filterUnits="userSpaceOnUse" color-interpolation-filters="sRGB">
<feFlood flood-opacity="0" result="BackgroundImageFix"/>
<feBlend mode="normal" in="SourceGraphic" in2="BackgroundImageFix" result="shape"/>
<feGaussianBlur stdDeviation="20" result="effect1_foregroundBlur_6_180"/>
</filter>
<filter id="filter65_f_6_180" x="164.968" y="399.292" width="38.6576" height="38.6969" filterUnits="userSpaceOnUse" color-interpolation-filters="sRGB">
<feFlood flood-opacity="0" result="BackgroundImageFix"/>
<feBlend mode="normal" in="SourceGraphic" in2="BackgroundImageFix" result="shape"/>
<feGaussianBlur stdDeviation="5" result="effect1_foregroundBlur_6_180"/>
</filter>
</defs>
</svg>
